<svg height="512" viewBox="0 0 64 64" width="512" xmlns="http://www.w3.org/2000/svg"><path d="m17 53h30v2h-30z" fill="#2d75bb"/><path d="m16 57h32v2h-32z" fill="#2d75bb"/><path d="m18 55.118-.443-2.013 22.48-11.241-14.6-10.04a1 1 0 0 1 -.177-1.493l9-10 1.486 1.338-8.237 9.153 15.06 10.354a1 1 0 0 1 -.119 1.719z" fill="#32b1cc"/><path d="m45.979 55.118-24.426-12.218a1 1 0 0 1 -.119-1.719l15.06-10.354-8.237-9.153 1.486-1.338 9 10a1 1 0 0 1 -.177 1.493l-14.6 10.04 22.481 11.236z" fill="#32b1cc"/><path d="m15 62a1.014 1.014 0 0 1 -.331-.056 1 1 0 0 1 -.613-1.275l14-40a1 1 0 1 1 1.888.662l-14 40a1 1 0 0 1 -.944.669z" fill="#195c85"/><path d="m49 62a1 1 0 0 1 -.944-.669l-14-40a1 1 0 1 1 1.888-.662l14 40a1 1 0 0 1 -.613 1.275 1.014 1.014 0 0 1 -.331.056z" fill="#195c85"/><g fill="#f9bb4b"><path d="m22.071 16.707c-4.514-4.514-1.974-9.44 0-11.414l1.414 1.414-.707-.707.709.705c-.437.442-4.149 4.441 0 8.588z"/><path d="m20.071 19.707c-2.8-2.8-4.164-5.805-4.066-8.943a12.982 12.982 0 0 1 4.111-8.514l1.323 1.5-.661-.75.663.749c-.033.029-3.318 3-3.438 7.094-.074 2.559 1.1 5.065 3.482 7.45z"/><path d="m41.707 16.707-1.414-1.414c4.244-4.244.175-8.411 0-8.586l1.414-1.414c1.974 1.974 4.514 6.9 0 11.414z"/><path d="m43.707 19.707-1.414-1.414c2.385-2.385 3.556-4.891 3.481-7.45-.119-4.095-3.4-7.065-3.437-7.094l1.325-1.5a12.982 12.982 0 0 1 4.111 8.514c.098 3.137-1.273 6.148-4.066 8.944z"/></g><path d="m26 15h12v6h-12z" fill="#aabece"/><path d="m31 2h2v5h-2z" fill="#32b1cc"/><path d="m29 15h2v3h-2z" fill="#7d8d9c"/><path d="m33 15h2v3h-2z" fill="#7d8d9c"/><path d="m28 7h8v4h-8z" fill="#aabece"/><path d="m31 11h2v4h-2z" fill="#32b1cc"/></svg>