<svg xmlns="http://www.w3.org/2000/svg" width="457.511" height="357.916" viewBox="0 0 457.511 357.916">
  <g id="Component_2_1" data-name="Component 2 – 1" transform="translate(0 0)">
    <g id="electric-tower" transform="translate(0 47.23)">
      <g id="Group_5" data-name="Group 5" transform="translate(0)">
        <path id="Path_3" data-name="Path 3" d="M305.508,300.329H236.748L204.53,203.675l72.348-38.585.006,0c.058-.031.113-.067.169-.1a5,5,0,0,0,2.566-4.632v-10.19H284.8a5.178,5.178,0,0,0,0-10.356h-5.178v-5.178H284.8a5.178,5.178,0,0,0,0-10.356h-5.178V119.1H284.8a5.178,5.178,0,0,0,0-10.356H264.084a5.178,5.178,0,0,0,0,10.356h5.178v5.178h-5.178a5.178,5.178,0,0,0,0,10.356h5.178v5.178h-5.178a5.178,5.178,0,0,0,0,10.356h5.178v5.178H201.947v-43.5l74.93-39.963.006,0c.058-.031.113-.067.169-.1a5,5,0,0,0,2.566-4.632V56.959H284.8a5.178,5.178,0,0,0,0-10.356h-5.178V41.426H284.8a5.178,5.178,0,0,0,0-10.356h-5.178V25.892H284.8a5.178,5.178,0,0,0,0-10.356H264.083a5.178,5.178,0,1,0,0,10.356h5.178V31.07h-5.178a5.178,5.178,0,1,0,0,10.356h5.178V46.6h-5.178a5.178,5.178,0,1,0,0,10.356h5.178v5.178h-69.04L178.645,10.356h23.3V25.89a5.178,5.178,0,0,0,10.356,0V5.178A5.178,5.178,0,0,0,207.124,0H103.563a5.178,5.178,0,0,0-5.178,5.178V25.89a5.178,5.178,0,0,0,10.356,0V10.356h23.3L110.467,62.137H41.426V56.959H46.6a5.178,5.178,0,0,0,0-10.356H41.426V41.426H46.6a5.178,5.178,0,0,0,0-10.356H41.426V25.892H46.6a5.178,5.178,0,0,0,0-10.356H25.892a5.178,5.178,0,1,0,0,10.356h5.178V31.07H25.892a5.178,5.178,0,1,0,0,10.356h5.178V46.6H25.892a5.178,5.178,0,1,0,0,10.356h5.178V67.148a5,5,0,0,0,2.566,4.632c.057.033.112.068.169.1l.006,0,74.93,39.963v43.5H41.426v-5.178H46.6a5.178,5.178,0,0,0,0-10.356H41.426v-5.178H46.6a5.178,5.178,0,0,0,0-10.356H41.426V119.1H46.6a5.178,5.178,0,0,0,0-10.356H25.892a5.178,5.178,0,1,0,0,10.356h5.178v5.178H25.892a5.178,5.178,0,0,0,0,10.356h5.178v5.178H25.892a5.178,5.178,0,0,0,0,10.356h5.178v10.189a5,5,0,0,0,2.566,4.632c.057.033.112.068.169.1l.006,0,72.347,38.585L73.941,300.329H5.18a5.178,5.178,0,0,0,0,10.356H305.508a5.178,5.178,0,0,0,0-10.356ZM155.344,72.493H191.59v31.069H119.1V72.493Zm37.762,134.631h1.657l27.047,81.14L163.024,234.59Zm-37.762,20.455-22.4-20.455h44.805Zm9.77-92.948,26.476-16.548v33.1Zm13.6,20.712h-46.74l23.37-14.606Zm-23.37-26.818-23.37-14.606h46.74Zm-9.77,6.106L119.1,151.178v-33.1ZM191.591,165.7v28.784l-2.5,2.284H121.6l-2.5-2.284V165.7Zm-75.665,41.425h1.657l30.082,27.467L88.879,288.264ZM155.344,241.6l64.321,58.728H91.024Zm98.384-75.9-51.781,27.616V165.7ZM201.947,100.11V72.493h51.781ZM143.262,10.356h24.164L189,62.137H121.687ZM56.96,72.493h51.781V100.11ZM108.741,165.7v27.616L56.96,165.7Z" transform="translate(-0.002)" fill="#42bfdd"/>
      </g>
    </g>
    <g id="electric-tower-2" data-name="electric-tower" transform="translate(328.847)">
      <g id="Group_5-2" data-name="Group 5" transform="translate(0)">
        <path id="Path_3-2" data-name="Path 3" d="M126.522,124.375H98.046L84.7,84.348l29.961-15.979,0,0c.024-.013.047-.028.07-.041a2.072,2.072,0,0,0,1.063-1.918v-4.22h2.144a2.144,2.144,0,0,0,0-4.289H115.8V55.755h2.144a2.144,2.144,0,0,0,0-4.289H115.8V49.322h2.144a2.144,2.144,0,0,0,0-4.289h-8.578a2.144,2.144,0,1,0,0,4.289h2.144v2.144h-2.144a2.144,2.144,0,1,0,0,4.289h2.144V57.9h-2.144a2.144,2.144,0,1,0,0,4.289h2.144v2.144H83.633V46.319l31.031-16.55,0,0c.024-.013.047-.028.07-.041a2.072,2.072,0,0,0,1.063-1.918v-4.22h2.144a2.144,2.144,0,0,0,0-4.289H115.8V17.156h2.144a2.144,2.144,0,0,0,0-4.289H115.8V10.723h2.144a2.144,2.144,0,0,0,0-4.289h-8.578a2.144,2.144,0,1,0,0,4.289h2.144v2.144h-2.144a2.144,2.144,0,1,0,0,4.289h2.144V19.3h-2.144a2.144,2.144,0,1,0,0,4.289h2.144v2.144H82.919L73.984,4.289h9.65v6.433a2.144,2.144,0,0,0,4.289,0V2.144A2.144,2.144,0,0,0,85.778,0H42.89a2.144,2.144,0,0,0-2.144,2.144v8.578a2.144,2.144,0,0,0,4.289,0V4.289h9.65L45.749,25.733H17.157V23.588H19.3a2.144,2.144,0,1,0,0-4.289H17.157V17.156H19.3a2.144,2.144,0,1,0,0-4.289H17.157V10.723H19.3a2.144,2.144,0,1,0,0-4.289H10.724a2.144,2.144,0,0,0,0,4.289h2.144v2.144H10.724a2.144,2.144,0,0,0,0,4.289h2.144V19.3H10.724a2.144,2.144,0,0,0,0,4.289h2.144v4.22a2.071,2.071,0,0,0,1.063,1.918c.024.014.046.028.07.041l0,0,31.031,16.55V64.332H17.157V62.188H19.3a2.144,2.144,0,1,0,0-4.289H17.157V55.755H19.3a2.144,2.144,0,1,0,0-4.289H17.157V49.322H19.3a2.144,2.144,0,1,0,0-4.289H10.724a2.144,2.144,0,0,0,0,4.289h2.144v2.144H10.724a2.144,2.144,0,0,0,0,4.289h2.144V57.9H10.724a2.144,2.144,0,0,0,0,4.289h2.144v4.22a2.071,2.071,0,0,0,1.063,1.918c.024.014.046.028.07.041l0,0L43.965,84.348,30.622,124.375H2.146a2.144,2.144,0,0,0,0,4.289H126.522a2.144,2.144,0,0,0,0-4.289ZM64.334,30.022H79.345V42.888H49.323V30.022ZM79.972,85.776h.686l11.2,33.6L67.514,97.151ZM64.334,94.247l-9.278-8.471H73.611ZM68.38,55.755,79.345,48.9V62.608Zm5.632,8.577H54.656l9.678-6.049ZM64.334,53.226l-9.678-6.049H74.012Zm-4.046,2.529L49.323,62.607V48.9ZM79.345,68.621v11.92l-1.036.946H50.359l-1.036-.946V68.621ZM48.01,85.776H48.7L61.154,97.151,36.809,119.379Zm16.324,14.278,26.637,24.321H37.7Zm40.744-31.434L83.634,80.058V68.621ZM83.633,41.458V30.022h21.444ZM59.33,4.289H69.337l8.935,21.444H50.4ZM23.59,30.022H45.034V41.458Zm21.444,38.6V80.058L23.59,68.621Z" transform="translate(-0.002)" fill="#42bfdd"/>
      </g>
    </g>
  </g>
</svg>
