<svg xmlns="http://www.w3.org/2000/svg" width="459.4" height="290.055" viewBox="0 0 459.4 290.055">
  <g id="usa-not-calibrated" transform="translate(-5.241 -7.195)">
    <path id="HI" d="M233.087,514.68l.965-1.77,1.126-.161.161.4-1.046,1.528Zm5.068-1.85,3.057,1.287,1.046-.161.8-1.93-.322-1.689-2.091-.241-2.011.885Zm15.283,4.987,1.85,2.735,1.207-.161.563-.241.724.643,1.85-.08.483-.724-1.448-.885-.965-1.85-1.046-1.77-2.9,1.448Zm10.055,4.424.643-.965,2.333.483.322-.241,3.057.322-.161.643-1.287.724-2.172-.161Zm2.654,2.574.965,1.931,1.528-.563.161-.8-.8-1.046-1.85-.161Zm3.459-.563,1.126-1.448,2.333,1.207,2.172.563,2.172,1.367v.965l-1.77.885-2.413.483-1.207-.724Zm8.285,7.722.8-.643,1.689.8,3.781,1.77,1.689,1.046.8,1.207.965,2.172,2.011,1.287-.161.643-1.931,1.609-2.091.724-.724-.322-1.528.885-1.207,1.609-1.126,1.448-.885-.08-1.77-1.287-.161-2.252.322-1.207-.8-2.815-1.046-.885-.08-1.287,1.126-.483,1.046-1.528.241-.483-.8-.885Z" transform="translate(-114.117 -252.459)" fill="#bbe6e4" stroke="#fff" stroke-width="0.75"/>
    <path id="AK" d="M81.646,443.36l-.161,42.472.8.483,1.528.08.724-.563h1.287l.08,1.448,3.459,3.378.241,1.287,1.689-.965.322-.08.161-1.528.724-.8.563-.08.965-.724,1.528,1.046.322,1.448.965.563.563,1.207,1.931.885,1.689,2.976,1.367,1.931,1.126,1.367.724,1.85,2.494.885,2.574,1.046.483,2.172.241,1.528-.483,1.689-.885,1.126-.8-.4-.724-1.528-1.367-.724-.885-.563-.4.4.724,1.367.08,1.85-.563.241-.965-.965-1.046-.644.241.8.644.885-.4.4a1.694,1.694,0,0,1-.644-.483c-.241-.322-1.046-1.689-1.046-1.689l-.483-1.126s-.161.643-.483.483a2.212,2.212,0,0,1-.644-.724l.885-.965-.724-.724v-2.494h-.4l-.4,1.689-.563.241-.483-1.85-.322-1.85-.4-.241.161,2.815v.563l-.724-.644-1.77-2.976-1.046-.241-.322-1.85-.8-1.448-.8-.563V495.4l1.046-.643-.241-.161-1.287.322-1.689-1.207-1.287-1.448-2.413-1.287L84.3,489.693l.644-1.609v-.8l-.885.8-1.448.563-1.85-.563-2.815-1.207H75.211l-.322.241-3.218-1.931-1.046-.161-1.367-2.9-1.77.161-1.77.724.241,2.252.563-1.448.483.161-.724,2.172,1.609-1.367.322.8-1.931,2.172-.644-.161-.241-.965-.644-.4-.644.563-1.367-.885-1.528,1.046L60.33,488l-1.689,1.046-2.333-.08-.241-1.046,1.85-.322v-.644l-1.126-.322.483-1.207L58.4,483.5v-.885l.08-.4,2.172-1.126.483.643H62.5l-.644-1.287-1.85-.161-2.494,1.367-1.207,1.689-.885,1.287-.563,1.126-2.091.724-1.528,1.287-.161.8,1.126.483.4,1.046L51.241,491.7l-3.218,2.091-3.861,2.091-1.046.563-2.654.563-2.654,1.126.885.644-.724.724-.241.563-1.367-.483-1.609.081-.4,1.126h-.483l.161-1.207-1.77.644-1.448.483-1.689-.644-1.448.965H26.063l-1.046.643-.8.4-1.046-.161-1.287-.563-1.126.322-.483.483-.8-.563v-.965L21,499.989l3.137.322,2.172-.8,1.046-1.046,1.448-.322.885-.4,1.367.081.8.643.483-.161,1.126-1.368,1.528-.483,1.689-.322.644-.161.322.241h.4l.644-1.85,2.011-.724.965-1.85,1.126-2.252.8-.724.161-1.287-.8.644-1.689.322-.322-1.207-.644-.161-.483.483-.08,1.448-.724-.08-.724-2.9-.644.643-.563-.241-.161-.965-2.011.08-1.046.563-1.287-.161.724-.724.241-1.287-.322-.965.724-.483.644-.08-.322-.885V479.4l-.483-.483-.4.724H30.326l-.724-.644-.322-1.931-1.046-1.77v-.483l1.046-.4.08-1.046.563-.563-.4-.241-.644.241-.563-1.367.483-2.494,2.252-1.609,1.287-.8.965-1.85,1.367-.644,1.287.563.161,1.207,1.207-.161,1.609-1.207.8.322.483.322h.8l1.126-.644.4-2.172s.161-1.448.483-1.689a2.224,2.224,0,0,0,.483-.483l-.563-.965-1.287.4-1.609.4-.965-.241-1.77-.885-2.494-.08-1.77-1.85.241-1.931.322-1.207-1.046-.885L31.613,451l.241-.4,3.378-.241h1.046l.483.483h.322l-.08-.8,1.931-.322,1.287.161.724.563-.724,1.046-.241.724,1.367.8,2.494.885.885-.483L43.6,451.243l-.483-1.609.483-.4-1.689-.965-.241-.563.241-.8-.4-1.931-1.448-2.333-1.207-2.091,1.448-.965H41.91l.885.322,2.091-.08,1.85-1.77.563-1.528,1.85-1.207.8.483,1.367-.322,1.85-1.046.563-.08.483.4,2.252-.08,1.367-1.528H58.4l1.77,1.207.965,1.046-.241.563.322.563.8-.8,1.931.161.161,1.85.965.724,3.539.322,3.137,2.091.724-.483,2.574,1.287,1.046-.322.965-.4,2.413.965Zm-57.272,14.4,1.046,2.654-.08.483-1.448-.161-.885-2.011L22.122,458H20.915l-.08-1.287.885-1.207.563,1.207.724.724Zm-1.287,16.651,1.85.4,1.85.483.4.483-.8,1.85-1.528-.08-1.689-1.77Zm-10.3-7,.563,1.287.563.8-.563.4-1.046-1.528v-.965ZM5.953,503.769l1.689-1.126,1.689-.483,1.287.161.241.8.965.241.965-.965-.161-.8L14,501.276l1.448,1.287-.563.885-2.172.563-1.367-.241-1.85-.563-2.172.724-.8.161Zm24.373-2.252.8.965,1.046-.8-.724-.643Zm1.448,1.528.563-1.126,1.046.161-.4.965Zm11.744-.965.724.885.483-.563-.4-.965Zm4.344-6.194.563,2.9,1.448.4,2.494-1.448,2.172-1.287-.8-1.207.241-1.207-1.046.643-1.448-.4.8-.563.965.4,1.931-.885.241-.724-1.207-.4.4-.965-1.367.965-2.333,1.77-2.413,1.448Zm21.075-9.894,1.207-.724-.483-.885-.885.483Z" transform="translate(0 -213.797)" fill="#bbe6e4" stroke="#fff" stroke-width="0.75"/>
    <path id="FL" d="M701.182,438.752l1.127,3.642,1.856,4.848,2.654,4.665,1.85,3.137,2.413,2.735,2.011,1.85.8,1.448-.563.644-.4.643,1.448,3.7,1.448,1.448,1.287,2.654,1.77,2.9,2.252,4.1.643,3.781.241,5.952.322.885-.161,1.689-1.207.644.161.965-.322.965.161,1.207.241.965-1.367,1.609-1.528.724-1.931.08-.724.8-1.207.483-.643-.241-.563-.483-.161-1.448-.4-1.689L711,491.482l-1.77-1.126L707.3,490.2l-.4.643-1.528-2.172-.322-1.77-1.287-2.011-.885-.563-.8,1.046-.885-.161-1.046-2.494-1.448-1.931-1.448-2.654L695.96,476.6l-1.77-1.85,1.046-1.207,1.609-2.735-.08-.8-2.252-.483-.8.322.161.322,1.287.483-.724,2.252-.4.241-.885-2.011-.643-2.413-.161-1.367.724-2.333v-4.746l-1.528-1.85-.644-1.528-2.574-.644-.965-.322-.8-1.287-1.689-.8-.563-1.689-1.367-.483-1.207-1.85-2.091-.724-1.448-.724H676.9l-2.011.4-.08.965.4.483-.241.563-1.528-.08-1.85,1.77-1.77.965h-1.931l-1.609.644-.161-1.367-.8-.965-1.448-.563-.8-.724-4.022-1.93-3.781-.885-2.172.322-2.976.241-2.976,1.046-1.731.3-.118-4.005L644,444.586l-.885-.885.161-1.528,5.068-.644,12.709-1.448,3.378-.322,2.7.139,1.287,1.931.724.724,4.029.256,5.384-.322,10.7-.643,2.71-.336,2.542.1.212,1.448,1.111.4.117-2.3-.76-2.076.651-.716,2.764.226Zm6.242,65.882,1.207-.322.643-.121.724-1.166,1.166-.8.644.241.845.161.2.523-1.729.6-2.091.724-1.166.6Zm6.717-2.494.6.523,1.367-1.046,2.654-2.091,1.85-1.931,1.247-3.3.483-.845.08-1.689-.362.241-.483,1.408-.724,2.293-1.609,2.614-2.172,2.091-1.689.965Z" transform="translate(-320.124 -216.42)" fill="#bbe6e4" stroke="#fff" stroke-width="0.75"/>
    <path id="NH" d="M867.8,117.192l.432-.536.542-1.638-1.265-.455-.241-1.528-1.931-.563-.161-1.367-3.62-11.664-2.29-7.236-.446,0-.322.8-.322-.241-.483-.483-.724.965-.024,2.5.155,2.82.965,1.367v2.011l-1.85,2.519-1.287.563v.563l.563.885v4.263l-.4,4.585-.08,2.413.483.644-.08,2.252-.241.885.482.353,8.353-2.2,1.082-.3.917-1.38Z" transform="translate(-426.548 -42.501)" fill="#bbe6e4" stroke="#fff" stroke-width="0.75"/>
    <path id="MI" d="M580.328,74.75l-1.135.28-2.674,1.928-1.089.4-.9,1.026.793.56,1.026-.451L578,77.533l2.566-2.566Zm5.536,7.075-2.332.249-2.161,1.2-1.135,1.135-.638.871-.886.4-.964,1.446-.078.653-2.177,1.042-1.2.964-2.985.482-.327.327v.482l-1.757,1.12-1.368.4-.358.3,1.85,2.55,3.918.575,4.105,1.088,1.415.513,6.033,1.353,1.026,1.135,1.757.684.964,5.131.684.513.591.513,1.57-3.483.482-2.021.98-2.161.389-.093.575.809h.311l2.255-1.2.731.793.233.078.653-.56.56-1.524,1.2-.4,3.467-.327.964-1.275,2.566-.093,2.908.653h.886l1.6-.731,1.12.078,1.057-.311,1.85.233.4.171.638-.171-.638-.482-.653-.311-1.6-1.539V89.631l-.731-.249-.56.575L610,90.75l-.964.249-1.446-.4-.233-.155V87.625l-.731-.093-1.291.653-2.239.964-3.312.155-1.679.56-2.021,1.773-.793.482h-.575l-.637.4-.809-.233-.793-.653-.731.482-1.928.078-1.368-1.368-.731-1.524-.715-.56-1.617-.482h-1.12l-.638-.638-1.773,1.446-.482.56-.4-.249.156-1.275,1.213-1.617.233-1.213,1.135-.389.715-1.539,1.85-.482.171-.482Zm33.1,11.538-1.088.124-.793.078-.171.56.482.249.327,1.244,1.617.078.638-.591s-.041-.728-.2-.809A7.316,7.316,0,0,1,618.968,93.362ZM610.882,98l-1.446.886L607.99,100l.156,1.773.482.156,1.057.249.233.4-1.291.4-1.275.156-.731.886-.155,1.042.155.809.155,2.737-1.757,1.042-.327-.078v-2.1l.638-1.2.327-1.213-.4-.4-.964.4-.482,2.1-1.368.56-.886.964-.078.482.326.4-.326,1.291-1.12.233v.56l.389,1.213-.56,3.048-.793,2.021.311,2.332.249.56-.4,1.213-.156.389-.171,1.368,1.773,2.985,1.446,3.219.731,2.41-.4,2.332-.482,2.97-1.213,2.581-.155,1.368-1.617,1.539,2.192-.093L612.142,142l3.623-.5.047.84,3.405-.606,5.131-.746,1.913-.233.078-.3.078-.715,1.042-1.85,1-.871-.109-2.519.793-.793.544-.171.109-1.757.762-1.508.529.3.078.327.4.078.964-.482-.156-4.743-1.617-4.105-1.12-4.509-1.213-1.6-1.291-.886-.793.56-1.944.886-.964,2.488-1.368,1.85-.56.327-.715-.327s-1.293-.72-1.213-1.042.249-2.488.249-2.488l1.679-.653.4-1.679.327-1.291,1.2-.809-.156-4.991-.809-1.12-.637-.4-.4-1.042.4-.4.809.155.078-.809-1.213-1.12-.638-1.291h-1.291l-2.255-.715-2.737-1.695h-1.368l-.311.327-.482-.249Z" transform="translate(-282.134 -33.732)" fill="#bbe6e4" stroke="#fff" stroke-width="0.75"/>
    <path id="VT" d="M838.506,126.64l.158-2.66-1.438-5.366-.322-.161-1.448-.644.4-1.448-.4-1.046-1.343-2.309.483-1.931-.4-2.574-1.207-3.218-.4-2.449,13.146-3.35.154,2.748.953,1.364v2.011l-1.845,2.517-1.287.569-.005.558.652.756-.155,4.029-.3,4.607-.113,2.765.483.644-.08,2.274-.241.841.5.362-3.7.75Z" transform="translate(-415.319 -46.16)" fill="#bbe6e4" stroke="#fff" stroke-width="0.75"/>
    <path id="ME" d="M893.093,58.363l.965,1.046,1.126,1.85v.965l-1.046,2.333-.965.322-1.689,1.528-2.413,2.735h-.643c-.322,0-.483-1.046-.483-1.046l-.885.08-.483.724-1.207.724-.483.724.8.724-.241.322-.241,1.367-.965-.08v-.8l-.161-.644-.724.161-.885-1.609-1.046.644.643.724.161.563-.4.644.161,1.528.08.8-.8,1.287-1.448.241-.161,1.448L877,79.2l-.643.241-.8-.724-1.528,1.77.483,1.609-.724.644-.08,2.172-.559,3.115-1.225-.575-.241-1.528-1.931-.563-.161-1.367-3.62-11.664-2.338-7.284.707-.059.753.2V63.9l.651-2.237,1.287-2.333.724-2.011-.965-1.207V53.134l.4-.483.4-1.367-.08-.724-.08-2.413.885-2.413,1.448-4.424,1.046-2.091h.644l.643.08v.563l.644,1.126,1.367.322.4-.4v-.483l2.011-1.448.885-.885.724.08,2.976,1.207.965.483,4.5,14.881h2.976l.4.965.08,2.413,1.448,1.126h.4l.08-.241-.241-.563Zm-10.415,15,.764-.764.684.523.281,1.207-.845.442Zm3.338-2.936.885.925s.643.04.643-.121.121-1.005.121-1.005l.442-.4-.4-.885L886.7,69.3Z" transform="translate(-430.918 -15.314)" fill="#bbe6e4" stroke="#fff" stroke-width="0.75"/>
    <path id="RI" d="M872.213,170.454l-1.839-7.442,3.119-.918,1.09.959,1.645,2.15,1.337,2.19-1.492.808-.644-.08-.563.885-1.207.965Z" transform="translate(-434.305 -77.616)" fill="#bbe6e4" stroke="#fff" stroke-width="0.75"/>
    <path id="NY" d="M788.091,147.226l-.563-.483-1.287-.08-1.126-.965-.811-3.05-1.721.045-1.216-1.348-9.646,2.18-21.4,4.344-3.747.611-.367-3.218.711-.56.643-.563.483-.8.885-.563.965-.885.241-.8,1.046-1.367.563-.483-.08-.483-.644-1.528-.885-.08-.965-3.057,1.448-.885,2.172-.724,2.011-.644,1.609-.241,3.137-.08.965.644.8.08,1.046-.644,1.287-.563,2.574-.241,1.046-.885.885-1.609.8-.965h1.046l.965-.563.08-1.126-.724-1.046-.161-.724.563-1.046V122.1h-.885l-.885-.4-.4-.563-.08-1.287,2.9-2.735.322-.4.724-1.448,1.448-2.252,1.367-1.85,1.046-1.207,1.2-.908,1.533-.62,2.735-.644,1.609.08,2.252-.724,3.764-1.031.259,2.478,1.207,3.218.4,2.574-.483,1.931,1.287,2.252.4,1.046-.4,1.448,1.448.644.322.161,1.528,5.47-.267,2.518-.241,5.389.4,2.735.4,1.77.724,3.62v4.022l-.563,1.126.915.992.4.835-.965.885.161.643.643-.161.724-.643,1.126-1.287.563-.322.8.322,1.126.08,3.941-1.931,1.448-1.367.644-.724,2.091.8-1.689,1.77-1.93,1.448-3.539,2.654-1.287.483-2.9.965-2.011.563-.584-.265-.121-1.835.241-1.367-.08-1.046-1.4-.845-2.252-.483-1.93-.563Z" transform="translate(-371.922 -49.486)" fill="#bbe6e4" stroke="#fff" stroke-width="0.75"/>
    <path id="PA" d="M780.031,200.694l.651-.135,1.159-.624.6-1.236.8-1.126,1.609-1.528v-.4l-1.207-.8-1.77-1.207-.483-1.287-1.367-.161-.08-.563-.4-1.367,1.126-.563.08-1.207-.644-.644.081-.8.965-1.528V183.98l1.342-1.317-.458-.336-1.256-.1-1.142-.965-.771-3.043-1.744.05-1.222-1.345-9,2.089-21.4,4.344-4.424.724-.309-3.245-2.668,2.522-.643.241-2.091,1.5,1.448,9.522,1.235,4.841,1.777,9.584,1.627-.317,5.943-.748,18.871-3.814,7.4-1.4,4.13-.807.133-.119,1.046-.8Z" transform="translate(-366.477 -85.069)" fill="#bbe6e4" stroke="#fff" stroke-width="0.75"/>
    <path id="NJ" d="M826.888,188.46l-1.156,1.361v1.528l-.965,1.528-.08.8.643.643-.08,1.207-1.126.563.4,1.367.08.563,1.367.161.483,1.287,1.77,1.207,1.207.8v.4l-1.484,1.342-.8,1.126-.724,1.367-1.126.644-.23.8-.121.6-.3,1.3.543,1.117,1.609,1.448,2.413,1.126,2.011.322.08.724-.4.483.161,1.367h.4l1.046-1.207.4-2.413,1.367-2.011L835.8,206.8l.563-2.735-.322-.563-.08-4.665-.8-1.689-.563.4-1.367.161-.241-.241.563-.483,1.046-.965.031-.544-.191-1.709.285-1.367-.058-.98-1.4-.871-2.534-.585-2.059-.687Z" transform="translate(-411.068 -90.862)" fill="#bbe6e4" stroke="#fff" stroke-width="0.75"/>
    <path id="DE" d="M823.264,226.351l.183-1.068.187-.841-.808.2-.8.233-1.1.878.856,2.509,1.126,2.815,1.046,4.826.8,3.137,2.494-.08,3.056-.587-1.127-3.675-.483.241-1.77-1.207-.885-2.333-.965-1.77-1.566-1.428-.43-1.044Z" transform="translate(-409.461 -108.94)" fill="#bbe6e4" stroke="#fff" stroke-width="0.75"/>
    <path id="MD" d="M800.294,239.675l-2.99.6-2.559.058-.917-3.444-.958-4.562-1.28-3.079-.641-2.189-3.735.807-7.4,1.4-18.635,3.757.563,2.494.483,2.815.161-.161,1.046-1.207,1.126-1.3,1.207-.306.724-.724.885-1.287.643.322,1.448-.161,1.287-1.046,1-.723.918-.241.818.562,1.448.724.965.885.6.764,2.051.845v1.448l2.735.644.569.27.7-1.009,1.434.98-.636,1.235-.381,1.983-.885,1.287v1.046l.322.885,2.52.675,2.145-.031,1.528.483,1.046.161.483-1.046-.724-1.046v-.885l-1.207-1.046-1.046-2.735.643-2.654-.08-1.046-.644-.644s.724-.8.724-1.126a5.067,5.067,0,0,1,.241-1.046l.965-.643.965-.8.241.483-.724.8-.643,1.85.161.563.885.161.241,2.735-1.046.483.161,1.77.241-.08.563-.965.8.885-.8.644-.161,1.689,1.287,1.689,1.931.241.8-.4,1.61,2.081.676.267,3.311-1.392,1-2Zm-7.946,4.492.563,1.247.08.885.563.925s.442-.442.442-.6-.362-1.528-.362-1.528l-.362-1.166Z" transform="translate(-379.442 -110.255)" fill="#bbe6e4" stroke="#fff" stroke-width="0.75"/>
    <path id="VA" d="M767.248,253.976l-.072-.969,3.211-1.269-.383,1.6-1.453,1.88-.208,2.282.23,1.687-.91,2.477-1.077.953-.732-2.309.222-2.711.79-2.081Zm1.662,14.082-28.946,6.257-18.623,2.627-3.323-.187-1.286.959-3.652.11-4.171.486-5.431.8,5.209-2.792-.006-1.032.756-1.068,5.251-5.723,1.964,2.228,1.882.48,1.266-.567,1.113-.652,1.262.669,1.948-.71.934-2.267,1.294.269,1.421-1.06.9.246,1.407-1.829.173-1.036-.48-.635.5-.929,2.624-6.109.307-2.854.612-.26,1.084,1.216,1.958-.15.96-3.768,1.39-.279.522-1.364,1.284-1.168,1.379-2.834.042-2.522,4.887,1.9c.339.169.414-2.512.414-2.512l1.817.8.034,1.462,2.878.647,1.061.585.826,1.023-.326,1.815-.969,1.289.055,1.025.293.922,2.477.631,2.215.02,1.527.477.967.154.356,1.537,1.587.2.432.6-.219,2.334.684.549-.238.961.612.393-.11.689-1.341-.047.044.8,1.135.768.06.7.882.888.245,1.256-1.27.687.782.744,2.886-.839Z" transform="translate(-350.453 -117.762)" fill="#bbe6e4" stroke="#fff" stroke-width="0.75"/>
    <path id="WV" d="M737.1,230.287l.553,2.46.539,3,1.06-1.284,1.126-1.528,1.263-.306.724-.724.885-1.287.719.322,1.448-.161,1.287-1.046,1-.723.918-.241.649.506,1.813.906.965.885.684.644-.379,2.764-2.9-1.264-2.112-.807-.05,2.577-1.367,2.755-1.259,1.207-.593,1.368-1.315.249-.447,1.792-.519,1.965-1.974.17-1.156-1.214-.533.278-.315,2.722-.672,1.759-2.467,5.451.446.578-.1.95-1.4,1.933-.9-.271-1.477,1.075-1.265-.285-.995,2.267a10.222,10.222,0,0,1-1.952.681c-.08-.008-1.229-.622-1.229-.622l-1.163.686-1.2.52-1.863-.442-.558-.581-1.091-1.5-1.564-.989-.852-1.8-2.132-1.726-.322-1.126-1.287-.724-.4-.8-.121-2.614,1.086-.04.965-.4.081-1.367.8-.724.08-2.494.483-1.931.644-.322.643.563.241.885.885-.483.241-.8-.563-.885v-1.207l.483-.644,1.126-1.689.644-.724,1.046.241,1.126-.8,1.528-1.689,1.126-1.931.161-2.815.241-2.494v-2.333l-.563-1.528.483-.724.639-.643,1.737,9.866,2.3-.374Z" transform="translate(-355.359 -107.558)" fill="#bbe6e4" stroke="#fff" stroke-width="0.75"/>
    <path id="OH" d="M699.668,193.328l-3.032,2.017-1.931,1.126-1.689,1.85-2.011,1.931-1.609.4-1.448.241-2.735,1.287-1.046.08-1.689-1.528-2.574.322-1.287-.724-1.185-.672-2.434.35-5.068.8-5.576,1.087.643,7.28.885,6.837,1.287,11.664.282,2.4,2.051-.064,1.207-.4,1.674.748,1.03,2.172,2.557-.008.941,1.054.876-.032,1.263-.667,1.246.185,2.7.24.859-1.061,1.167-.644,1.03-.339.322,1.367.885.483,1.729,1.166,1.086-.04.663-.245.092-1.374.789-.724.049-2.385.51-2.045.646-.3.657.571.268.844.855-.516.218-.727-.556-.947.033-1.152.373-.534,1.071-1.645.523-.768,1.046.241,1.126-.8,1.528-1.689,1.379-2.029.159-2.516.241-2.494-.088-2.641-.475-1.44.175-.592.9-.871-1.139-4.5Z" transform="translate(-330.796 -93.308)" fill="#bbe6e4" stroke="#fff" stroke-width="0.75"/>
    <path id="IN" d="M619.57,254.407l.033-1.422.241-2.252,1.126-1.448.885-1.931,1.287-2.091-.241-2.9L622.015,241l-.161-1.609.4-2.735-.241-3.459-.643-7.963-.644-7.642-.483-5.832,1.528.443.724.483.563-.161,1.046-.965,1.408-.8,2.534-.081,10.94-1.126,2.774-.265.748,7.939,2.115,18.331.3,2.872-.185,1.126.611.893.048.683-1.255.8-1.761.772-1.593.274-.3,2.422-2.276,1.648-1.391,2,.161,1.183-.289.763h-1.655l-.789-.8-1.241.628-1.335.748.08,1.52-.594.128-.233-.507-1.078-.748-1.617.667-.772,1.5-.715-.4-.724-.8-2.221.241-2.783.483Z" transform="translate(-308.295 -101.324)" fill="#bbe6e4" stroke="#fff" stroke-width="0.75"/>
    <path id="IL" d="M588.281,248.61,588.3,247l.282-2.312,1.161-1.451.929-2.028,1.111-1.988-.185-2.613-1-1.763-.048-1.665.346-2.622-.411-3.572-.531-7.85-.643-7.472-.459-5.791-.136-.458-.4-1.287-.643-1.85-.8-.885-.724-1.287-.116-2.731-22.787,1.293.114,1.18,1.138.341.455.569.228.91,1.934,1.706.341,1.138-.341,1.706-.91,1.82-.341,1.251-1.138.91-.91.341-2.616.683-.341.91-.341,1.024.341.683.91.8-.114,2.048-.91.8-.341.8v1.365l-.91.227-.8.569-.114.683.114,1.024-.853.654-.512,1.394.228,1.82,1.138,3.64,3.64,3.754,2.73,1.82-.114,2.161.455.683,3.185.228,1.365.683-.341,1.82-1.138,2.958-.341,1.593,1.138,1.934,3.185,2.616,2.275.341,1.024,2.5,1.024,1.593-.455,1.479.8,2.048.91,1.024.7-.438.452-1.032,1.1-.869,1.061-.306,1.295.587,1.8.685.592-.148.1-1.124-.641-1.2.151-1.183.915-.67,1.5-.4.627-.228-.3-.69-.394-1.171.713-.488Z" transform="translate(-277.021 -95.342)" fill="#bbe6e4" stroke="#fff" stroke-width="0.75"/>
    <path id="CT" d="M859.184,171.387l-1.83-7.4-2.348.458-10.563,2.36.5,1.605.724,3.62.088,4.462-.607,1.082.956.961,2.125-1.943L850,174.98l.965-1.046.4.322,1.368-.724,2.574-.563Z" transform="translate(-421.277 -78.565)" fill="#bbe6e4" stroke="#fff" stroke-width="0.75"/>
    <path id="WI" d="M572.909,150.3l-.033-1.571-.587-2.252-.322-3.057-.563-1.207.483-1.528.4-1.448.724-1.287-.322-1.689-.322-1.77.241-.885.965-1.207.08-1.367-.4-.644.322-1.287-.225-2.075,1.367-2.815,1.448-3.378.08-1.126-.161-.483-.4.241-2.091,3.137-1.367,2.011-.965.885-.4,1.126-.973.4-.563.965-.724-.161-.08-.885.643-1.207,1.046-2.333.885-.8.493-1.173-1.274-.946-.983-5.158-1.765-.668-.968-1.149-6.035-1.354-1.431-.5-4.087-1.078-3.94-.577-1.873-2.553-.373.276-.6-.08-.322-.563-.664.148-.563.08-.885.483-.483-.322.322-.965.965-1.528.563-.563-.965-.724-1.046.4-1.448.965-3.7,1.609-1.448.322-1.448-.241-.489-.437-1.053,1.411-.114,1.365v4.209l-.569.8-2.616,1.934-1.138,2.958.227.114,1.251,1.024.341,1.593-.91,1.593v1.934l.227,3.3,1.479,1.479h1.706l.91,1.593,1.706.228,1.934,2.844,3.526,2.048,1.024,1.365.455,3.7.341,1.649,1.138.8.114.683-1.024,1.706.114,1.593,1.251,1.934,1.251.569,1.479.228.668.687Z" transform="translate(-263.876 -48.268)" fill="#bbe6e4" stroke="#fff" stroke-width="0.75"/>
    <path id="NC" d="M763.491,294.316l1.037,2.447,1.77,3.218,1.207,1.207.322,1.126-1.207.08.4.322-.161,2.091-1.287.644-.322,1.046-.643,1.448-1.85.8-1.207-.161-.724-.08-.8-.643.161.643v.483h.965l.4.644-.965,3.137h2.091l.322.8,1.126-1.126.643-.241-.965,1.77-1.528,2.413h-.644l-.563-.241-1.367.322-2.574,1.207-3.217,2.654-1.689,2.333-.965,3.218-.241,1.207-2.333.241-2.713.665-4.949-4.081-6.274-3.781-1.448-.4-6.274.724-2.128.373-.8-1.609-1.478-1.053-8.2.241-3.62.4-4.5,2.252-3.057,1.287-10.537,1.287.249-2.017.885-.724,1.367-.322.322-1.85,2.091-1.367,1.931-.724,2.091-1.77,2.172-1.046.322-1.528,1.93-1.931.322-.08s0,.563.4.563a4.4,4.4,0,0,1,.965.161l1.126-1.77,1.046-.322,1.126.161.8-1.77,1.448-1.287.241-1.046.093-1.815,2.128-.011,3.582-.426,7.84-1.121,7.531-1.038,10.768-2.348,9.943-2.119,5.561-1.2Zm2.125,16.523,1.287-1.247,1.569-1.287.764-.322.08-1.005-.322-3.057-.724-1.166-.322-.925.362-.121,1.367,2.735.2,2.212-.08,1.689-1.689.764-1.408,1.207-.563.6Z" transform="translate(-345.032 -144.047)" fill="#bbe6e4" stroke="#fff" stroke-width="0.75"/>
    <path id="DC" d="M804.267,248.566l-.925-.908-.613-.342.718-1.006,1.438.97Z" transform="translate(-400.318 -119.928)" fill="#bbe6e4" stroke="#fff" stroke-width="0.75"/>
    <path id="MA" d="M871.539,157.712l1.081-.341.227-.853.512.057.512,1.138-.626.228-1.934.057Zm-4.664.4,1.138-1.308h.8l.91.739-1.194.512-1.081.512ZM849.56,147.169l8.781-2.309,1.126-.322.952-1.391,1.859-.828,1.438,2.2-1.207,2.574-.161.724.965,1.287.563-.4h.885l1.126,1.287,1.931,2.976,1.77.241,1.126-.483.885-.885-.4-1.367-1.046-.8-.724.4-.483-.644.241-.241,1.046-.08.885.4.965,1.207.483,1.448.161,1.207-2.091.724-1.931.965-1.931,2.252-.965.724v-.483l1.207-.724.241-.885-.4-1.528-1.448.724-.4.724.241,1.126-1.028.5-1.367-2.253-1.689-2.172-1.03-.9-3.251.934-2.534.523L844.057,155.9l-.332-2.372.322-5.269,2.134-.442Z" transform="translate(-420.916 -67.68)" fill="#bbe6e4" stroke="#fff" stroke-width="0.75"/>
    <path id="TN" d="M640.311,315.063l-25.821,2.494-7.842.885-2.3.255-1.925-.014-.11,2.04-4.073.131-3.459.322-4.026-.062-.7,3.519-.844,2.727-1.639,1.369-.671,2.18-.161,1.287-2.011,1.126.724,1.77-.483,2.172-.482.393,53.817-5.179.2-1.968.9-.742,1.41-.373.334-1.85,2.039-1.346,2.014-.743,2.032-1.777,2.207-1.008.259-1.526,2.022-1.983.274-.057s.016.563.418.563a4.051,4.051,0,0,1,.965.176l1.126-1.785,1.03-.322,1.132.147.8-1.758,1.47-1.316.21-.965L659.3,312l-1.068-.1-1.295,1.009-3.48.014-9.135,1.188Z" transform="translate(-290.669 -152.882)" fill="#bbe6e4" stroke="#fff" stroke-width="0.75"/>
    <path id="AR" d="M551.121,337.67l-1.98.357-2.544-.315.209-.8,1.483-1.277.469-1.819-.91-1.479L508.83,333.59l.8,3.413v4.1l.683,5.46.114,18.827,1.138.967,1.479-.683,1.365.569.339,3.271,27.676-.568.57-1.04-.143-1.766-.908-1.479.8-.739-.8-1.25.34-1.249.681-2.789,1.253-1.026-.341-1.137,1.82-2.673,1.365-.681L547,352.37l-.172-.908,1.422-2.786,1.2-.625.191-1.706.881-.618-1.564-.241-.667-2,1.4-1.183.274-1,.637-2.013Z" transform="translate(-252.657 -163.15)" fill="#bbe6e4" stroke="#fff" stroke-width="0.75"/>
    <path id="MO" d="M523.117,245.413l-1.254-1.536-.569-1.138-32.023,1.194-1.138.057.626,1.251-.114,1.138,1.251,1.934,1.536,2.048,1.536,1.365,1.075.114.745.455v1.479l-.91.8-.228,1.138,1.024,1.706,1.251,1.479,1.251.91.683,5.8.156,17.949.114,2.332.228,2.679,11.162-.431,11.547-.341,10.352-.4,5.8-.115,1.079,1.7-.34,1.646-1.536,1.2-.285.914,2.676.228,1.938-.341.854-2.734.324-2.914,1.044-1.271,1.292-.74.026-1.518.506-.964-.843-1.266-.662.49L542.3,280.6l-.639-2.368.4-1.253-.967-1.706L540.179,273l-2.388-.4-3.468-2.786-.855-2.047.4-1.593,1.025-3.014.228-1.425-.97-.513-3.411-.4-.512-.852-.056-2.1-2.73-1.707-3.471-3.867-1.138-3.64-.115-2.1Z" transform="translate(-242.259 -118.134)" fill="#bbe6e4" stroke="#fff" stroke-width="0.75"/>
    <path id="GA" d="M672.292,353.045v1.086l.08,1.046.322,1.689,1.689,3.941,1.207,4.907.724,3.057.8,2.413.724,3.459,1.046,3.137,1.287,1.689.241,1.689.965.4.08,1.046-.885,2.413-.241,1.609-.08.965.8,2.172.161,2.654-.4,1.207.322.4.724.4.1,1.6,1.111,1.667,1.12,1.076,3.941.081,5.384-.322,10.7-.644,2.71-.336,2.278.014.08,1.448,1.287.4.161-2.172-.8-2.252.563-.8,2.9.4,2.477.158-.386-3.134,1.126-4.987.724-2.091-.241-1.287,1.659-3.107-.254-.673-.952.351-1.287-.644-.322-1.046-.643-1.77-1.126-1.046-1.287-.322-.8-2.413-1.455-3.152-2.091-.965-1.046-.965-.643-1.287-1.046-.965-1.126-.643-1.126-1.448-1.528-1.126-2.252-.885-.241-.724-1.207-1.448-.241-.724-1.689-2.473-1.751.049-1.868-1.172-.706-.643-.161-.885.433-.965,1.108-.552-.315-1.044Z" transform="translate(-334.784 -172.307)" fill="#bbe6e4" stroke="#fff" stroke-width="0.75"/>
    <path id="SC" d="M738.222,375.057l-.884.482-1.287-.643-.322-1.046-.643-1.77-1.126-1.046-1.287-.322-.8-2.413-1.367-2.976-2.091-.965-1.046-.965-.644-1.287-1.046-.965-1.126-.644-1.126-1.448-1.528-1.126-2.252-.885-.241-.724-1.207-1.448-.241-.724-1.689-2.574-1.689.08-2.011-1.207-.643-.643-.161-.885.4-.965,1.126-.483-.254-1.139,2.87-1.163,4.536-2.283,3.869-.4,8.018-.21,1.313.934.835,1.671,2.141-.3,6.274-.724,1.448.4,6.274,3.781,5.03,4.041-2.7,2.716-1.287,3.057-.241,3.137-.8.4-.563,1.367-1.207.322-1.046,1.77-1.367,1.367L745.3,367.9l-.8.4-1.77,1.689-1.448.08.483,1.609-2.494,2.735Z" transform="translate(-354.613 -168.14)" fill="#bbe6e4" stroke="#fff" stroke-width="0.75"/>
    <path id="KY" d="M661.279,280.71l-1.141,1.2-1.78,1.987-2.45,2.719-.6.854-.031,1.046-2.179,1.077-2.815,1.689-3.6.9-25.808,2.438-7.842.885-2.3.255-1.925-.014-.113,2.1-4.07.072-3.459.322-3.974-.03.6-.657,1.244-.767.114-1.593.455-.91-.8-1.263.4-.949,1.126-.885,1.046-.322,1.367.644,1.77.643.563-.161.08-1.126-.644-1.207.161-1.126.965-.724,1.287-.322.8-.322-.4-.885L607,285.3l.75-.5c0-.018.624-1.753.616-1.82l1.519-.736,2.647-.483,2.236-.241.693.81.76.433.792-1.547,1.586-.638,1.1.738.2.5.584-.131-.08-1.469,1.558-.87,1.069-.534.761.826,1.651-.022.292-.782-.183-1.126,1.294-1.99,2.377-1.711.351-2.406,1.455-.227,1.887-.819,1.216-.85-.1-.779-.568-.724.281-1.49,2.082-.059,1.144-.371,1.666.711,1.022,2.172,2.554.005,1.021,1.1.8-.073,1.295-.636,2.606.285,1.281.108.84-1.023,1.3-.709.936-.352.322,1.411,1.017.527,1.315,1.036.058,2.823.4.782,1.289.774.384,1.142,2.07,1.71.9,1.8Z" transform="translate(-297.05 -129.966)" fill="#bbe6e4" stroke="#fff" stroke-width="0.75"/>
    <path id="AL" d="M629.177,407.728l-.742-7.126-1.367-9.331.08-7,.4-15.444-.08-8.285.082-3.194,22.135-1.8-.074,1.086.08,1.046.322,1.689,1.689,3.941,1.207,4.907.724,3.057.8,2.413.724,3.459,1.046,3.137,1.287,1.689.241,1.689.965.4.08,1.046-.885,2.413-.241,1.609-.08.965.8,2.172.161,2.654-.4,1.207.322.4.724.4.163,1.437-2.785-.176-3.378.322-12.709,1.448-5.181.7-.11,1.432.885.885,1.287.965.289,3.949-2.758,1.28-1.367-.161,1.367-.965v-.483l-1.528-2.976-1.126-.322-.724,2.172-.643,1.367-.322-.08Z" transform="translate(-312.062 -174.812)" fill="#bbe6e4" stroke="#fff" stroke-width="0.75"/>
    <path id="LA" d="M564.076,432.385l-1.634-1.575.5-2.737-.329-.444-4.608.5-12.454.228-.34-1.191.454-4.207,1.65-2.958,2.5-4.324-.286-1.193.625-.339.228-.971-1.138-1.023-.056-.967-.911-2.162-.073-3.154-27.6.46.014,4.764.341,4.664.341,1.934,1.251,2.048.455,2.5,2.161,2.73.114,1.593.341.341-.341,4.209-1.479,2.5.8,1.024-.341,1.251-.341,3.64-.683,1.593.061,1.8,2.332-.756,6.027.1,5.148,1.77,3.218.563,1.85-.724,1.609.563,1.609.483.4-1.046-1.609-.563-1.287.241-1.367-.8s.08-.644.4-.724,1.528-.483,1.528-.483l.885.724.885-.483,1.609.322.724,1.207.161,1.126,2.252.161.885.885-.4.8-.643.4.8.8,4.183,1.77,1.77-.643.483-1.207,1.287-.322.885-.724.643.483.4,1.448-1.126.4.322.322,1.689-.644,1.126-1.689.4-.241-1.046-.161.4-.8-.08-.724,1.046-.241.563-.643.322.4s-.08,1.528.322,1.528,2.091.322,2.091.322l2.011.965.483.724h1.448l.563.483,1.126-1.528v-.724h-.643l-1.689-1.367-2.9-.4-1.609-1.126.563-1.367,1.126.161.081-.322-.885-.483V440.9h1.609l.885-1.528-.643-.965-.161-1.367-.724.08-.965,1.046-.322,1.287-1.528-.322-.483-.885.885-.965.947-1.714-.528-1.2Z" transform="translate(-258.575 -200.092)" fill="#bbe6e4" stroke="#fff" stroke-width="0.75"/>
    <path id="MS" d="M600.638,409.009l-.126.625h-2.574l-.724-.4-1.046-.161-3.378.965-.885-.4-1.287,2.091-.549.387-.559-1.238-.569-1.934-1.706-1.593.569-2.759-.341-.455-.91.114-3.94.435-12.214.186-.383-1.107.435-4.168L572,396.77l2.6-4.55-.222-1.21.615-.327.217-.955-1.153-1.034L574,387.628l-.913-2.051-.054-2.967.661-1.234-.111-1.7-.88-1.534.76-.737-.781-1.244.227-.822.785-3.247,1.237-1.013-.319-1.178,1.82-2.638,1.409-.675-.11-.833-.143-.836,1.431-2.77,1.167-.613.075-.444,18.581-1.931.092,3.126.08,8.285-.4,15.444-.08,7,1.368,9.331Z" transform="translate(-283.398 -176.625)" fill="#bbe6e4" stroke="#fff" stroke-width="0.75"/>
    <path id="IA" d="M521.114,189.441l.132,1.386,1.107.287.475.61.249.923,1.887,1.671.341,1.19-.335,1.7-.787,1.608-.4,1.364-1.081.8-.854.285-2.776.926-.692,1.915.363.683.916.837-.141,2.008-.877.765-.384.818.063,1.381-.939.228-.809.55-.139.673.139,1.052-.772.555-1.229-1.559-.628-1.219-32.709,1.251-.457.082-1.021-2.247-.114-3.3-.8-2.048L478.505,202l-1.138-1.82-.455-2.389-1.365-3.754-.569-2.673-.683-1.081-.8-1.365.972-2.41.683-2.844-1.365-1.024-.227-1.365.455-1.251h.853L516,179.4l.415,2.081,1.121.777.128.708-1.01,1.686.095,1.6,1.251,1.89,1.257.644,1.532.25Z" transform="translate(-234.906 -86.308)" fill="#bbe6e4" stroke="#fff" stroke-width="0.75"/>
    <path id="MN" d="M470.647,90.866l-.228-4.209-.91-3.64L468.6,76.3l-.228-4.892-.91-1.706-.8-2.5V62.085l.341-1.934-.906-2.713,14.993.018.161-4.1.322-.08,1.126.241.965.4.4,2.735.724,3.057.8.8h2.413l.161.724,3.137.161v1.046h2.413l.161-.644.563-.563,1.126-.322.644.483h1.448l1.931,1.287,2.654,1.207,1.207.241.241-.483.724-.241.241,1.448,1.287.644.241-.241.643.08v1.046l1.287.483h1.528l.8-.4,1.609-1.609,1.287-.241.4.885.241.644h.483l.483-.4,4.424-.161.885,1.528h.322l.355-.54,2.209-.184-.3,1.134-1.96.914-4.6,2.021-2.376,1-1.528,1.287-1.207,1.77-1.126,1.931-.885.4-2.252,2.494-.644.08-2.153,1.372-1.225,1.595-.114,1.588.047,4-.685.84-2.528,1.871-1.11,2.977,1.429,1.111.338,1.606-.923,1.612.085,1.865.184,3.349,1.507,1.494h1.656l.941,1.559,1.681.25,1.92,2.822,3.526,2.048,1.066,1.431.334,3.2-40.409.57-.168-17.752-.228-1.479L469.4,95.644l-.569-.91v-.8l1.024-.8.683-.683Z" transform="translate(-231.189 -22.942)" fill="#bbe6e4" stroke="#fff" stroke-width="0.75"/>
    <path id="OK" d="M371.518,320.182l-8.3-.634-.438,5.45,10.183.576,15.95.649-1.162,12.15-.228,8.873.114.8,2.161,1.82,1.024.569.341-.114.341-1.024.683.91h1.024v-.683l1.365.683-.228,1.934,2.048.114,1.251.569,2.048.341,1.251.91,1.138-1.024,1.706.341,1.251,1.706h.455v1.138l1.138.341,1.138-1.138.91.341h1.251l.455,1.251,3.135,1.034.683-.341.91-2.048h.569l.569,1.024,2.048.341,1.82.683,1.479.455.91-.455.341-1.251h2.161l1.024.455L427.4,355.9h.569l.341.8h2.048l.8-1.024.91.228,1.024,1.251,1.593.91,1.593.455.966.557-.194-18.518-.683-5.46-.08-4.415-.716-3.253-.387-3.572-.034-1.9-6.039.159-23.093-.227-22.41-1.024Z" transform="translate(-179.277 -156.724)" fill="#bbe6e4" stroke="#fff" stroke-width="0.75"/>
    <path id="TX" d="M324.3,330.545l11.29.54,15.471.569L349.9,343.325l-.148,9.033.034,1.036,2.161,1.9.988.72.589-.278.186-.9.567.9,1.051.022v-.72l.831.481.567.2-.179,1.974,2.034.047,1.456.6,1.968.261,1.185,1.034,1.057-1.033,1.853.306,1.105,1.6.535.16-.08.978,1.1.394,1.159-1.022,1.061.306,1.109.018.464,1.212,3.149,1.052.793-.382.741-2.079h.17l.451.041.612,1.029,1.955.331,1.66.559,1.7.6.916-.485.355-1.251,2.216.022.9.463,1.393-1.048.549.022.423.8h2.018l.756-1.009.929.2.968,1.2,1.752,1.017,1.422.4.753.4,1.217.994,1.514-.661,1.339.567.281,3.038-.02,4.828.341,4.744.349,1.794,1.331,2.2.447,2.463,2.1,2.756.1,1.565.371.391-.363,4.17-1.429,2.491.763,1.071L407.167,398l-.333,3.684-.749,1.661.147,1.743-2.819.789-4.907,2.252-.483.965-1.287.965-1.046.724-.644.4-2.815,2.654-1.367,1.046-2.655,1.609L385.4,417.7l-3.137,1.689-.885.724-2.9,1.77-1.689.322-1.931,2.735-2.011.161-.483.965,1.126.965-.724,2.735-.644,2.252-.563,1.93-.4,2.252.4,1.207.885,3.459.483,3.057.885,1.367-.483.724-1.528.965-2.815-1.931-2.735-.563-.643.241L364,444.4l-2.091-1.528-2.574-.563-3.781-1.689-1.046-1.931-.643-3.218-1.609-.965-.322-1.126.322-.322.161-1.689-.643-.322-.322-.483.644-2.172-.8-1.126-1.609-.643-1.689-2.172-1.77-3.3-2.091-1.287.08-.965-2.654-6.113-.4-2.091-.885-.965-.08-.724-2.976-2.654-1.287-1.528v-.563l-1.287-1.046-3.378-.563-3.7-.322-1.528-1.126-2.252.885-1.77.724-1.126,1.609-.483,1.85-2.172,3.057-1.207,1.207-1.287-.483-.885-.563-.965-.322-1.931-1.126v-.322l-.885-.965-2.574-1.046-3.7-3.861-1.126-2.333V395.5l-1.609-3.218-.241-1.367-.8-.483-.563-1.046-2.494-1.046-.643-.8-3.539-3.941-.644-1.609-2.333-1.126-.724-2.172-1.287-1.448-.965-.241-.323-2.327,3.982.341,14.447,1.365,14.447.8,1.111-9.684,1.934-27.643.8-9.328.683.014m49.275,114.275-.282-3.539-1.367-3.58-.282-3.5.764-4.1,1.649-3.419,1.729-2.695,1.569-1.77.322.121-2.373,3.3-2.172,3.258-1.005,3.3-.161,2.574.442,3.057,1.287,3.58.241,2.574.08.724Z" transform="translate(-141.456 -162.235)" fill="#bbe6e4" stroke="#fff" stroke-width="0.75"/>
    <path id="NM" d="M265.048,366.119l-.386-2.363,4.3.261,15.013,1.466,13.568.841,1.1-9.308,1.919-27.8.865-9.648.782.064.411-5.555-51.75-5.292-8.706,59.926,7.693.99.644-4.987Z" transform="translate(-118.679 -151.315)" fill="#bbe6e4" stroke="#fff" stroke-width="0.75"/>
    <path id="KS" d="M443.623,290.134l-6.279.1-22.933-.228-22.171-1.024-12.255-.626,1.937-32.141,10.988.336,20.047.419,22.043.491h2.535l1.087,1.076,1-.011.816.5-.031,1.5-.91.859-.165,1.111.917,1.693,1.469,1.59,1.158.8.647,5.593Z" transform="translate(-187.923 -124.905)" fill="#bbe6e4" stroke="#fff" stroke-width="0.75"/>
    <path id="NE" d="M419.006,214.121l1.607,3.493-.064,1.146,1.721,2.734,1.353,1.569h-2.513l-21.636-.467-20.295-.443-11.072-.39.534-10.612L352.562,209.7l2.161-21.9,7.735.512,10.011.569,8.873.569,11.831.569,5.347-.228,1.024,1.138,2.389,1.479.569.455,2.161-.683,1.934-.228,1.365-.114.91.683,2.019.8,1.479.8.228.8.455,1.024h.91l.4.023.445,2.33,1.453,4.213.285,1.869,1.256,1.878.283,2.545.8,2.11Z" transform="translate(-174.144 -90.53)" fill="#bbe6e4" stroke="#fff" stroke-width="0.75"/>
    <path id="SD" d="M416.382,163.9l-.024-.289-1.441-2.411.926-2.345.743-2.929L415.2,154.9l-.192-1.365.394-1.271,1.587.008-.061-2.491-.166-15.014-.307-1.875-2.026-1.657-.489-.834-.031-.8,1.006-.761.762-.829.122-1.322-28.987-.8-27.267-1.716-2.65,31.691,7.26.45,9.927.6,8.829.462,11.831.649,5.962-.211.978,1.117,2.585,1.619.38.36,2.26-.723,3.254-.306.834.665,2.092.794,1.465.814.2.738.517,1.115Z" transform="translate(-176.322 -58.562)" fill="#bbe6e4" stroke="#fff" stroke-width="0.75"/>
    <path id="ND" d="M418.531,92.791l-.306-4.2L417.39,85.2l-.941-6.481-.228-5.467-.866-1.531-.874-2.585.016-5.2.31-1.9L413.9,59.32l-14.252-.281-9.25-.322L377.2,58.074l-11.418-1.062L362.3,90.438,389.637,92.1Z" transform="translate(-179.039 -24.82)" fill="#bbe6e4" stroke="#fff" stroke-width="0.75"/>
    <path id="WY" d="M299.671,136.515l-53.113-6.7-7.008,44.015,56.358,6.76Z" transform="translate(-117.365 -61.4)" fill="#bbe6e4" stroke="#fff" stroke-width="0.75"/>
    <path id="MT" d="M280.2,43.872l-15.263-1.4-14.559-1.77-14.559-2.011L219.731,36.04l-9.17-1.689L194.279,30.9,192.05,41.523l1.706,3.754-.683,2.275.91,2.275,1.593.683,2.3,5.359,1.341,1.581.228.569,1.706.569.228,1.024-3.526,8.759v1.251l1.251,1.593h.455l2.389-1.479.341-.569.8.341-.114,2.616,1.365,6.257,1.479,1.251.455.341.91,1.138-.228,1.706.341,1.706.569.455L209,83.841h1.365l1.593.8,1.251-.455h2.048l1.82.8,1.365-.228.227-1.479,1.479-.341.683.683.228,1.593.71.415.939-5.491,53.114,6.682Z" transform="translate(-93.499 -11.701)" fill="#bbe6e4" stroke="#fff" stroke-width="0.75"/>
    <path id="CO" d="M319.39,271.24l2.44-42.953L265.411,222l-6.077,43.756Z" transform="translate(-127.304 -107.711)" fill="#bbe6e4" stroke="#fff" stroke-width="0.75"/>
    <path id="ID" d="M148.479,102.067l4.364-17.525.683-2.1,1.251-2.958-.626-1.138L152.9,78.4l-.4-.512.228-.569.171-1.536,2.218-2.73.91-.228.569-.569.284-1.593.455-.341,1.934-2.9L161.2,65.26l.114-1.877-1.706-1.308-.764-2.19,6.779-31.517,6.726,1.258-2.193,10.64,1.772,3.725-.787,2.319.98,2.309,1.562.625L175.594,54l1.748,2.208.252.569,1.662.569.184,1.043-3.469,8.646-.082,1.277,1.309,1.653.45-.024,2.444-1.505.337-.545.777.328-.139,2.664,1.363,6.261,1.949,1.581.837,1.077-.357,2.032.531,1.4.528.543,1.234-1.17,1.417.024,1.453.664,1.383-.339,1.888-.08,1.98.8,1.365-.148.247-1.511,1.459-.381.627.754.219,1.465.709.6-4.173,26.674S151.959,102.815,148.479,102.067Z" transform="translate(-71.608 -10.428)" fill="#bbe6e4" stroke="#fff" stroke-width="0.75"/>
    <path id="UT" d="M217.421,247.6l-41.672-5.907,10.244-56,23.277,4.351-.739,5.289-1.15,6.554,3.885.462,8.163.9,4.086.426Z" transform="translate(-85.309 -89.471)" fill="#bbe6e4" stroke="#fff" stroke-width="0.75"/>
    <path id="AZ" d="M143.429,340.188l-1.307,1.074-.161.724.241.483,9.411,5.309,6.033,3.781,7.32,4.263,8.366,4.987,6.113,1.207,12.415,1.346,8.586-59.275-41.665-5.93-1.539,8.166-.8.008-.853,1.308-1.251-.057-.626-1.365-1.365-.171-.455-.569h-.455l-.455.284-.967.512-.057,3.47-.114.853-.284,6.257-.739,1.081-.284,1.65,1.365,2.446.626,2.9.4.512.512.284-.057,1.138-.8.683-1.706.853-.967.967-.739,1.82-.284,2.446L145.466,335l-1.024.341.068.413-.228.853.228.4,1.82.284-.284,1.365-.739,1.081Z" transform="translate(-68.333 -145.976)" fill="#bbe6e4" stroke="#fff" stroke-width="0.75"/>
    <path id="NV" d="M140.081,175.192l-11.762,64.1-.912.174-.783,1.2-1.181.005-.732-1.365-1.3-.188-.384-.551-.516-.027-1.382.818-.154,3.376-.18,2.875-.173,4.276-.72,1.04-1.214-.534L84.312,198.538,93.76,164.91Z" transform="translate(-39.369 -79.03)" fill="#bbe6e4" stroke="#fff" stroke-width="0.75"/>
    <path id="OR" d="M91.966,117.679l4.4-17.316.523-2.1,1.171-2.8-.306-.579-1.251-.023-.638-.831L96.1,93.3l.25-1.616,2.218-2.73.91-.547.569-.569.739-1.774,2.014-2.821,1.774-1.922.114-1.717-1.627-1.228-.887-2.31-6.3-1.8L88.361,72.5l-7.679.057-.228-.683L77.725,72.9l-2.218-.284-1.194-.8-.626.341-2.332-.114-.853-.683-2.616-1.024-.4.057-2.161-.739-.967.91L61.287,70.4,58.33,68.352l.341-.4.114-3.868-1.138-1.934L55.6,61.868l-.341-1.251-1.171-.232L51.2,61.408l-1.126,3.218-1.609,4.987-1.609,3.218-2.494,7-3.218,6.757L37.125,92.86l-.965,1.448-.4,4.263.192,6.011Z" transform="translate(-14.974 -26.514)" fill="#bbe6e4" stroke="#fff" stroke-width="0.75"/>
    <path id="WA" d="M84.367,7.612l2.172.724L91.365,9.7l4.263.965,9.974,2.815L117.025,16.3l7.575,1.6-6.783,31.639-6.192-1.754L103.908,46l-7.578.017L96.1,45.35l-2.786,1.084-2.287-.367-1.068-.788-.653.327-2.356-.07-.845-.672-2.619-1.051-.366.073-2.184-.759-.942.9-3.118-.149-2.948-2.053.388-.464.06-3.82-1.135-1.911-2.048-.3-.337-1.249-1.132-.227-1.769.612-1.126-1.6.161-1.448,1.367-.161.8-2.011-1.287-.563.08-1.85,2.172-.322-1.367-1.367-.724-3.539.322-1.448V16.219l-.885-1.609L68.6,9.944l1.046.241,1.207,1.448,1.367,1.287,1.609.965,2.252,1.046,1.528.322,1.448.724,1.689.483,1.126-.08V15.173l.644-.563,1.046-.644.161.563.161.885-1.126.241L82.6,16.7l.885.724.563,1.207.322.965.724-.08.08-.644-.483-.644-.241-1.609.4-.885-.322-.724V13.886l.885-1.77-.563-1.287L83.643,8.416l.161-.4Zm-4.705,2.975,1.005-.08.241.684.764-.8h1.166l.4.764-.764.845.322.4L82.437,13.4l-.684.2s-.442.04-.442-.121a9.184,9.184,0,0,1,.724-1.287l-.845-.282-.161.724-.362.322L79.9,11.834Z" transform="translate(-30.586)" fill="#bbe6e4" stroke="#fff" stroke-width="0.75"/>
    <path id="CA" d="M82.95,265.142l1.96-.243.739-1,.271-1.463-1.767-.294-.256-.333.238-1.011-.079-.293.957-.308,1.514-1.409.289-2.485.687-1.693.967-1.078,1.751-.791.823-.8.034-1.049-.494-.289-.509-.534-.575-2.91-1.336-2.4.282-1.744-1.2-.512L52.878,190.662l9.405-33.637-33.377-7.811-.75,2.355-.08,3.7L25.5,161.141l-1.528,1.287-.161.563-.885.4-.724,2.091-.4,1.609,1.367,2.091.8,2.091.563,1.77-.161,3.218-.885,1.528-.322,2.9-.483,1.85.885,1.931,1.367,2.252,1.126,2.413.644,2.011-.161,1.609-.161.241v1.046l2.815,3.137-.241,1.207-.322,1.126-.322.965.08,4.1,1.046,1.85.965,1.287,1.367.241.483,1.367-.563,1.77-1.046.8h-.563l-.4,1.931.241,1.448,1.609,2.172.8,2.654.724,2.333.644,1.528,1.689,2.9.724,1.287.241,1.448.8.483v1.207l-.4.965-.885,3.539-.241.965,1.207,1.367,2.091.241,2.252.885,1.931,1.046h1.448l1.448,1.528,1.287,2.413.563,1.126,1.931,1.046,2.413.4.724,1.046.322,1.609-.724.322.161.483,1.609.4,1.367.08,1.572-.839L59.169,252l.4,1.126,1.287,2.091.161,1.609v4.665l.241.885,4.987.724,9.813,1.367ZM39.1,243.389l.644.764-.08.644-1.609-.04-.282-.6-.322-.724Zm.965,0,.6-.322,1.77,1.046,1.528.6-.442.322-2.252-.121-.8-.8Zm10.3,9.854.885,1.166.4.483.764.282.282-.724-.483-.885-1.327-1.005-.523.08Zm-.724,4.3.885,1.569.6.965-.724.121-.644-.6a4.414,4.414,0,0,1-.362-.925v-1.086Z" transform="translate(-7.963 -71.144)" fill="#bbe6e4" stroke="#fff" stroke-width="0.75"/>
  </g>
</svg>
