<svg xmlns="http://www.w3.org/2000/svg" width="431.539" height="421.983" viewBox="0 0 431.539 421.983">
  <g id="usa-tx" transform="translate(-1.129 -1.698)">
    <path id="Bowie" d="M139.3,43.486l.256.666.247.566.214.286,1.32.844.473.31,1.739.949,3.125-1.585.163-.148.473-.057,1.808-.262,3.125.627.6.244.774.639.232,10.974-.274-.612-.678-.35-2.92-.467-.8.181-1.015.353-.518.922.093.814.111.353-.069.111-12.182-.069L134.5,58.56l-.271-.217-.081-.374-3.094-2.305-.163-14.6,8.407,2.42" transform="translate(260.248 78.247)" fill="#bbe6e4" stroke="#fff" stroke-linejoin="bevel" stroke-width="1"/>
    <path id="Red_River" data-name="Red River" d="M129.791,38.453l3.763,3.218,5.514,4.414,3.992,1.63.163,14.6L141.2,60.982l-10.239-.892-5.839.488-.066-.1-.2-19.16.476-.054.253-.027.856-.557.181-.175.175-.395.054-.392-.054-.337v-.057l-.124-.259-.012-.027.012-.039v-.069l.015-.054.69-1.046h.018l.027-.012.108-.054.229.009,2.037.681" transform="translate(248.081 71.598)" fill="#bbe6e4" stroke="#fff" stroke-linejoin="bevel" stroke-width="1"/>
    <path id="Crosby" d="M58.764,37.766l16.759.82L74.695,55.6l-16.717-.841.786-16.991" transform="translate(113.461 71.604)" fill="#bbe6e4" stroke="#fff" stroke-linejoin="bevel" stroke-width="1"/>
    <path id="Lubbock" d="M53.192,37.5l16.759.8-.786,16.991-16.744-.817L53.192,37.5" transform="translate(102.274 71.071)" fill="#bbe6e4" stroke="#fff" stroke-linejoin="bevel" stroke-width="1"/>
    <path id="Hockley" d="M47.385,37.118l16.976,1.154L63.59,55.245l-16.717-1.07.512-17.057" transform="translate(91.105 70.3)" fill="#bbe6e4" stroke="#fff" stroke-linejoin="bevel" stroke-width="1"/>
    <path id="Cochran" d="M43.494,36.794l13.836.976-.512,17.057L41.933,53.755l.666-7.09.895-9.871" transform="translate(81.16 69.647)" fill="#bbe6e4" stroke="#fff" stroke-linejoin="bevel" stroke-width="1"/>
    <path id="Floyd" d="M62.273,31.707l13.7.747L75,51.142l-16.759-.82L59.3,31.529l2.974.178" transform="translate(113.986 59.048)" fill="#bbe6e4" stroke="#fff" stroke-linejoin="bevel" stroke-width="1"/>
    <path id="Hale" d="M53.753,31.177l2.947.19,13.8.871L69.436,51.031l-16.759-.8,1.076-19.055" transform="translate(102.789 58.34)" fill="#bbe6e4" stroke="#fff" stroke-linejoin="bevel" stroke-width="1"/>
    <path id="Lamb" d="M48.39,30.807l2.85.208,13.854.907L64.019,50.977,47.043,49.823,48.39,30.807" transform="translate(91.447 57.595)" fill="#bbe6e4" stroke="#fff" stroke-linejoin="bevel" stroke-width="1"/>
    <path id="Bailey" d="M57.634,31.457,56.287,50.473,42.451,49.5l1.494-18.606.027-.407,13.661.973" transform="translate(82.203 56.945)" fill="#bbe6e4" stroke="#fff" stroke-linejoin="bevel" stroke-width="1"/>
    <path id="Briscoe" d="M60.554,25.954l12.074.636,4.619.247-.925,16.988-3.043-.148-13.7-.747.976-16.976" transform="translate(116.682 47.825)" fill="#bbe6e4" stroke="#fff" stroke-linejoin="bevel" stroke-width="1"/>
    <path id="Swisher" d="M55.069,25.606l11.694.747,5,.3-.976,16.976-2.974-.178-13.8-.871,1.058-16.976" transform="translate(105.477 47.125)" fill="#bbe6e4" stroke="#fff" stroke-linejoin="bevel" stroke-width="1"/>
    <path id="Castro" d="M60.892,25.994l5.4.31L65.237,43.281l-2.947-.19-13.854-.907L49.6,25.259l11.287.735" transform="translate(94.252 46.426)" fill="#bbe6e4" stroke="#fff" stroke-linejoin="bevel" stroke-width="1"/>
    <path id="Parmer" d="M44.261,24.863l16.376,1.193L59.468,42.981l-2.85-.208L42.956,41.8l1.3-16.937" transform="translate(83.22 45.629)" fill="#bbe6e4" stroke="#fff" stroke-linejoin="bevel" stroke-width="1"/>
    <path id="Armstrong" d="M59.452,20.217l16.907.991L75.313,38.139,63.24,37.5l-5-.3,1.208-16.985" transform="translate(113.996 36.276)" fill="#bbe6e4" stroke="#fff" stroke-linejoin="bevel" stroke-width="1"/>
    <path id="Randall" d="M53.724,19.86l17.151,1.076L69.666,37.921l-11.694-.747-5.4-.31,1.154-17" transform="translate(102.574 35.557)" fill="#bbe6e4" stroke="#fff" stroke-linejoin="bevel" stroke-width="1"/>
    <path id="Deaf_Smith" data-name="Deaf Smith" d="M43.389,36.213l.6-8.054.678-8.934,6.439.449,6.692.337,14.412,1.127-1.154,17-11.287-.735L43.389,36.213" transform="translate(84.091 34.279)" fill="#bbe6e4" stroke="#fff" stroke-linejoin="bevel" stroke-width="1"/>
    <path id="Carson" d="M59.663,14.65V14.5l16.825.895-.015.244-.922,17.072-16.907-.991L59.663,14.65" transform="translate(114.803 24.771)" fill="#bbe6e4" stroke="#fff" stroke-linejoin="bevel" stroke-width="1"/>
    <path id="Potter" d="M54.2,14.2,71.122,15.25,70.1,32.322,52.953,31.246,54.2,14.2" transform="translate(103.345 24.171)" fill="#bbe6e4" stroke="#fff" stroke-linejoin="bevel" stroke-width="1"/>
    <path id="Oldham" d="M72.629,15.259l-.027.286L71.355,32.587,56.943,31.46l-6.692-.337-6.439-.449L45.1,13.538l27.528,1.72" transform="translate(84.943 22.831)" fill="#bbe6e4" stroke="#fff" stroke-linejoin="bevel" stroke-width="1"/>
    <path id="Hutchinson" d="M59.959,8.908l16.759.949-.91,16.8-16.825-.895.976-16.855" transform="translate(115.484 13.51)" fill="#bbe6e4" stroke="#fff" stroke-linejoin="bevel" stroke-width="1"/>
    <path id="Moore" d="M54.467,8.565,71.265,9.6l-.976,16.855V26.6L53.367,25.556l.027-.286,1.073-16.7" transform="translate(104.178 12.819)" fill="#bbe6e4" stroke="#fff" stroke-linejoin="bevel" stroke-width="1"/>
    <path id="Hartley" d="M45.517,7.934l27.323,1.9-1.073,16.7L44.24,24.82l.353-4.553.925-12.333" transform="translate(85.805 11.549)" fill="#bbe6e4" stroke="#fff" stroke-linejoin="bevel" stroke-width="1"/>
    <path id="Hansford" d="M77,4.1l-.937,17.259v.093L59.307,20.5,60.325,3.148,77,4.1" transform="translate(116.136 1.914)" fill="#bbe6e4" stroke="#fff" stroke-linejoin="bevel" stroke-width="1"/>
    <path id="Sherman" d="M58.908,3.058l12.64.8L70.53,21.212l-16.8-1.033L54.874,2.8l4.035.262" transform="translate(104.913 1.206)" fill="#bbe6e4" stroke="#fff" stroke-linejoin="bevel" stroke-width="1"/>
    <path id="Dallam" d="M73.129,4,71.987,21.385l-27.323-1.9L45.4,9.218l.473-6.261L47.15,2.2,73.129,4" transform="translate(86.658)" fill="#bbe6e4" stroke="#fff" stroke-linejoin="bevel" stroke-width="1"/>
    <path id="Hudspeth" d="M45.624,61.032l-.5,5.472-.832,10.567-2.212,25.639L41.755,105l-.313,1.13-.651,6.665-2.215,1.145-.2.175-1.736-2.5-2.582-2.841-2.525-2.169-1.29-.112-.5-.175-4.074-2.606L20.8,98.132,15.083,90.69l-4.4-5.746L7.819,81.268l1.573-1.275.069-2.151L8.5,76.432l1.832-19,35.3,3.6" transform="translate(12.485 111.192)" fill="#bbe6e4" stroke="#fff" stroke-linejoin="bevel" stroke-width="1"/>
    <path id="El_Paso" data-name="El Paso" d="M22.814,58.818l-1.832,19,.964,1.41-.069,2.151L20.3,82.655l-3.233-1.44-1.061-.533-1.711-1.4-.434-.353-.012-.03-.124-.136-.042-.051-.268-.434-.886-2.757L9.8,69.165l-.648-1.232-1.13-.916L4.537,65.393l-2.552-2.73-.313-.422-.054-.178.759-3.354.081-.283.708-1.669v-.015h.012l.108.015,7.144.756,12.384,1.3" transform="translate(0 109.805)" fill="#bbe6e4" stroke="#fff" stroke-linejoin="bevel" stroke-width="1"/>
    <path id="Lynn" d="M69.881,43.951,68.875,60.845l-4.33-.283-12.48-.7,1.073-16.732,16.744.817" transform="translate(101.557 82.41)" fill="#bbe6e4" stroke="#fff" stroke-linejoin="bevel" stroke-width="1"/>
    <path id="Terry" d="M47.654,42.779l16.717,1.07L63.3,60.581l-4.291-.244L46.485,59.5l1.169-16.717" transform="translate(90.324 81.696)" fill="#bbe6e4" stroke="#fff" stroke-linejoin="bevel" stroke-width="1"/>
    <path id="Yoakum" d="M57.816,43.5,56.647,60.213,41.437,59.1l1.494-16.678L57.816,43.5" transform="translate(80.162 80.979)" fill="#bbe6e4" stroke="#fff" stroke-linejoin="bevel" stroke-width="1"/>
    <path id="Dawson" d="M55.552,48.85l12.48.7-.937,16.988L50.333,65.57l.928-16.964,4.291.244" transform="translate(98.07 93.426)" fill="#bbe6e4" stroke="#fff" stroke-linejoin="bevel" stroke-width="1"/>
    <path id="Gaines" d="M42.28,47.958l15.21,1.112,12.522.841-.928,16.964-.268-.015-27.8-1.916L42.28,47.958" transform="translate(79.318 92.122)" fill="#bbe6e4" stroke="#fff" stroke-linejoin="bevel" stroke-width="1"/>
    <path id="Martin" d="M50.989,54.231l.268.015,16.762.964L66.8,72.229l-2.664-.136-14.258-.9,1.115-16.961" transform="translate(97.146 104.75)" fill="#bbe6e4" stroke="#fff" stroke-linejoin="bevel" stroke-width="1"/>
    <path id="Andrews" d="M41.853,53.6l27.8,1.916L68.537,72.472l-2.471-.163L49.281,71.195,40.6,70.5l1.25-16.91" transform="translate(78.483 103.47)" fill="#bbe6e4" stroke="#fff" stroke-linejoin="bevel" stroke-width="1"/>
    <path id="Midland" d="M49.817,59.806l2.471.163,14.258.9L65.53,77.788l-16.855-1.07,1.142-16.913" transform="translate(94.733 115.973)" fill="#bbe6e4" stroke="#fff" stroke-linejoin="bevel" stroke-width="1"/>
    <path id="Ector" d="M61.076,60.551,59.934,77.464l-1.018-.057L44.127,76.358l-1.046-.063L44.29,59.436l16.786,1.115" transform="translate(83.473 115.228)" fill="#bbe6e4" stroke="#fff" stroke-linejoin="bevel" stroke-width="1"/>
    <path id="Crane" d="M44.091,65.052,58.879,66.1l-.895,21.957-2.908-.229-1.046-4.074-.3-.75-.093-.16-.425-.407-1.6-1.386-.434-.34-4.074-2.335-.422.015-3.586.554.991-13.893" transform="translate(83.51 126.534)" fill="#bbe6e4" stroke="#fff" stroke-linejoin="bevel" stroke-width="1"/>
    <path id="Presidio" d="M56.747,88.04l-.271,4.221-.952,11.721L54.1,123.432l-.735,9.045-5.662-1.85-1.847-.708-.2-.078-.136-.112-1.208-.964-2.432-1.925L30.2,115.769l-.651-1.452-3.76-9.449-.139-.4-.108-3.827.518-2.811.256-3.369L25.8,92.225,19.725,77.488l-1.766-1.127.2-.175L53.393,87.766l3.354.274" transform="translate(32.898 148.948)" fill="#bbe6e4" stroke="#fff" stroke-linejoin="bevel" stroke-width="1"/>
    <path id="Culberson" d="M25.906,58.843,52.861,61.26,47.347,95.727,18.762,110.391l.651-6.665.313-1.13.325-2.293,2.212-25.639L23.095,64.1l.5-5.472,2.311.217" transform="translate(34.515 113.597)" fill="#bbe6e4" stroke="#fff" stroke-linejoin="bevel" stroke-width="1"/>
    <path id="Ward" d="M60.93,66.392l1.046.063-.991,13.893-2.362.154-1.413-1.413-.937-.832-1.046-.627-2.079-.868-1.943.1-1.22-.027-.786-.084-1.684-.38-9.1-3.013-.419-.437-.383-.681-.325-1.952.081-2.326.19-1.332-.2-.823-.545-.874-2.594-.579,9.32.744L60.93,66.392" transform="translate(65.625 125.131)" fill="#bbe6e4" stroke="#fff" stroke-linejoin="bevel" stroke-width="1"/>
    <path id="Winkler" d="M47.234,59.207l8.678.69L54.7,76.756,37.309,75.463l1.085-13.541,1.928.154,1.7.118,2.311.178,1.844.148.8.057.256-3.369" transform="translate(71.852 114.767)" fill="#bbe6e4" stroke="#fff" stroke-linejoin="bevel" stroke-width="1"/>
    <path id="Loving" d="M30.561,59.541l8.419.69,13,1.018L50.893,74.791l-9.32-.744L40.869,72.5l-1.63-2.365-.325-.066-.651.136-.027.078-.081.069-.3.015-.717-.163-.259-.34-4.384-6.3-1.931-4.016" transform="translate(58.267 115.439)" fill="#bbe6e4" stroke="#fff" stroke-linejoin="bevel" stroke-width="1"/>
    <path id="Reeves" d="M33.763,59.5l1.452.124,1.931,4.016,4.384,6.3.259.34.717.163.3-.015.081-.069.027-.078.651-.136.325.066,1.63,2.365.705,1.549,2.594.579.545.874.2.823-.19,1.332L49.3,80.062l.325,1.952.383.681.419.437,9.1,3.013,1.684.38.786.084,1.22.027,1.943-.1L44.33,108.511,28.249,93.967,33.763,59.5" transform="translate(53.613 115.357)" fill="#bbe6e4" stroke="#fff" stroke-linejoin="bevel" stroke-width="1"/>
    <path id="Jeff_Davis" data-name="Jeff Davis" d="M64.908,85.484l4.52,4.279L56.61,98.6l-3.354-.274L18.027,86.749,20.241,85.6,48.827,70.939,64.908,85.484" transform="translate(33.035 138.385)" fill="#bbe6e4" stroke="#fff" stroke-linejoin="bevel" stroke-width="1"/>
    <path id="Brewster" d="M45.91,77.186l27.446,25.9,7.988,7.427-1.739,1.115-4.267,1.931L69.2,115.034l-.786.476-.081.054-4.565,7.442-2.742,6.355L51.846,142.98l-1.44.383h-.244l-3.965-.991-3.342-1.588L32.1,133.721l-.31-.325L30.429,132l-.72-1.534.735-9.045,1.425-19.45.952-11.721.271-4.221,12.818-8.84" transform="translate(56.552 150.961)" fill="#bbe6e4" stroke="#fff" stroke-linejoin="bevel" stroke-width="1"/>
    <path id="Terrell" d="M71.912,93.395l-1.29,19.784-.6-.178-.247-.078-3.245-.747-2.049-.325-3.26.229-.325.175-2.215-.431-6.5-3.643-7.988-7.427.627-8.937,7.5.476.814-12.185,4.6-.419,2.389-1.344,12.3.868.488-.051,1.835.38,1.332,1.073.217,2.456-.054.34L72.7,91.951l-.786,1.443" transform="translate(85.714 153.292)" fill="#bbe6e4" stroke="#fff" stroke-linejoin="bevel" stroke-width="1"/>
    <path id="Pecos" d="M62.253,72.059l3.586-.554.422-.015,4.074,2.335.434.34,1.6,1.386.425.407.093.16.3.75,1.046,4.074,4.523,2.052L85.3,85.03l2.121.663,3.369,2.814,2.823,9.576.175,1-12.3-.868-2.389,1.344-4.6.419-.814,12.185-7.5-.476-.627,8.937-27.446-25.9-4.52-4.279,20.83-21.975,2.079.868,1.046.627.937.832,1.413,1.413,2.362-.154" transform="translate(64.357 133.421)" fill="#bbe6e4" stroke="#fff" stroke-linejoin="bevel" stroke-width="1"/>
    <path id="Upton" d="M48.935,65.4l1.018.057,16.855,1.07L65.434,88.716,48.04,87.357,48.935,65.4" transform="translate(93.454 127.234)" fill="#bbe6e4" stroke="#fff" stroke-linejoin="bevel" stroke-width="1"/>
    <path id="Reagan" d="M55.187,65.774l16.756,1-.217,3.667-.066,1.073-1.2,17.44-16.65-.994,1.374-22.188" transform="translate(105.076 127.987)" fill="#bbe6e4" stroke="#fff" stroke-linejoin="bevel" stroke-width="1"/>
    <path id="Glasscock" d="M57.948,60.295l14.11.826L71.025,78.081l-16.756-1,1.015-16.919,2.664.136" transform="translate(105.994 116.684)" fill="#bbe6e4" stroke="#fff" stroke-linejoin="bevel" stroke-width="1"/>
    <path id="Howard" d="M73.469,55.563,72.234,72.547,69.6,72.4l-14.11-.826,1.223-17.018,16.756,1.006" transform="translate(108.452 105.404)" fill="#bbe6e4" stroke="#fff" stroke-linejoin="bevel" stroke-width="1"/>
    <path id="Borden" d="M61.163,49.2l12.468.612-.964,16.961-.015.139L55.9,65.906l.937-16.988,4.33.283" transform="translate(109.269 94.054)" fill="#bbe6e4" stroke="#fff" stroke-linejoin="bevel" stroke-width="1"/>
    <path id="Garza" d="M75.367,44.246l-.883,16.638-4.372.027L57.644,60.3,58.65,43.405l16.717.841" transform="translate(112.788 82.956)" fill="#bbe6e4" stroke="#fff" stroke-linejoin="bevel" stroke-width="1"/>
    <path id="Scurry" d="M66.8,49.206l12.4.9-.991,17.057-16.744-.967.964-16.961,4.372-.027" transform="translate(120.474 94.634)" fill="#bbe6e4" stroke="#fff" stroke-linejoin="bevel" stroke-width="1"/>
    <path id="Mitchell" d="M62.3,54.844l16.744.967L78.05,72.92l-5.119-.313-11.884-.639,1.235-16.985.015-.139" transform="translate(119.639 105.984)" fill="#bbe6e4" stroke="#fff" stroke-linejoin="bevel" stroke-width="1"/>
    <path id="Sterling" d="M61.008,60.478l2.633.148,11.884.639-.9,15.183-1.151-.419-.425,5.553-13.294-.476.217-3.667,1.033-16.961" transform="translate(117.044 117.326)" fill="#bbe6e4" stroke="#fff" stroke-linejoin="bevel" stroke-width="1"/>
    <path id="Irion" d="M60.535,67.68l9.139.53,9.832.654L78.8,85.852l-9.088-.3L59.339,85.12l1.2-17.44" transform="translate(116.2 131.824)" fill="#bbe6e4" stroke="#fff" stroke-linejoin="bevel" stroke-width="1"/>
    <path id="Crockett" d="M47.075,72.611l2.908.229L67.377,74.2l16.65.994,10.374.434L93.7,90.241l-.841,16.213-26.741-1.519.786-1.443,3.546-8.542.054-.34-.217-2.456-1.332-1.073-1.835-.38-.488.051-.175-1-2.823-9.576-3.369-2.814L58.142,76.7,51.6,74.663l-4.523-2.052" transform="translate(91.512 141.751)" fill="#bbe6e4" stroke="#fff" stroke-linejoin="bevel" stroke-width="1"/>
    <path id="Val_Verde" data-name="Val Verde" d="M54.255,83.339,81,84.858l8.717.419-1.262,25.738-.34,7.114-.38,2.908-.19.937-1.356,3.2-.437.639-.136.027-1.046-.19-7.961-7.132-6.665-8.268-.081-.22-4.9-5.46-1.684-.582-.151-.015-4.848-.31-.771-.039-4.538-.5,1.29-19.784" transform="translate(103.371 163.347)" fill="#bbe6e4" stroke="#fff" stroke-linejoin="bevel" stroke-width="1"/>
    <path id="Zapata" d="M77.769,124.689l2.974-1.995,1.223,1.82,13.173.585-.557,18.6-7.891,8.042-.515-2.067-.624-2.525v-.039l-1.046-3.845-.841-2.133-1.781-2.513-1.955-1.139-2.242-3.492-.136-1.534.042-.151.163-.133.612-.9.244-3.149-.434-2.853-.353-.56-.03-.009-.027-.015" transform="translate(152.865 242.573)" fill="#bbe6e4" stroke="#fff" stroke-linejoin="bevel" stroke-width="1"/>
    <path id="Jim_Hogg" data-name="Jim Hogg" d="M89.3,122.464l8.542.039,1.03.636-.12,3.019,1.03,1.181,2.447,6.978-.437,10.461L83.2,144.165l.557-18.6,5.541-3.1" transform="translate(164.243 242.11)" fill="#bbe6e4" stroke="#fff" stroke-linejoin="bevel" stroke-width="1"/>
    <path id="Starr" d="M88.476,129.666l18.591.615,3.558.108-2.808,5.987-3.29,6.355-3.745,7.605-1.645.232-2.525-1.115-11.869-5.336-2-1.29-2.037-4.649-.069-.268-.054-.2,7.891-8.042" transform="translate(158.971 256.608)" fill="#bbe6e4" stroke="#fff" stroke-linejoin="bevel" stroke-width="1"/>
    <path id="Willacy" d="M118.3,133l1.073.027,2.157,7.277h-.6L118.3,133m-22.4-.817,18.076.732,1.971,7.316-1.371,1.7-3.79,2.525-11.733-2.079.054-2.85-1.615-.518-3.354-.594.3-1.657.461-1.711,1-2.865" transform="translate(186.264 261.681)" fill="#bbe6e4" stroke="#fff" stroke-linejoin="bevel" stroke-width="1"/>
    <path id="Hidalgo" d="M97.132,129.906l11.733.337.841,6.532-1,2.865-.461,1.711-.3,1.657,3.354.594,1.615.518-.054,2.85-.217,11.016-.244-.054-.693-.105-3.164.033-1.058.018-.136.175-1.157.461-4.36-.841-2.564-.5-.8-.434-.5-.337-3.733-2.543-1.781-2.127-.949-.452-.081-.027-4.1-1.4h-.024l3.745-7.605,3.29-6.355,2.808-5.987" transform="translate(172.465 257.091)" fill="#bbe6e4" stroke="#fff" stroke-linejoin="bevel" stroke-width="1"/>
    <path id="Brooks" d="M88.365,123.69l10.13.352,6.056.193,2.471,2.049-.325,16.473-11.733-.337-3.558-.108.437-10.462L89.4,124.871l-1.03-1.181" transform="translate(174.633 244.578)" fill="#bbe6e4" stroke="#fff" stroke-linejoin="bevel" stroke-width="1"/>
    <path id="Kenedy" d="M116.149,123.92l.9.009-.108.371-.491,2.227-.283,1.889-.244,2.305-.108,2.037v2.133l.217,3.206.163,1.317.027.136L116.64,142l.612,2.769,1.073,3.908.054.151.054.148.325,1.064-1.073-.027-2.3-8.506v-4.818l.027-4.092.015-1.615.054-2.4.148-1.847.166-.937.35-1.871m-21.375,2.266,12.17-2.447-.081.3.012.678.139.244.214.163,2.989.569.786-.066.368-.148.232-.166.108-.175.527-.244,1.208-.437.925-.036.057.244-.832,5.43-1.479,4.441L111.1,142.1l1.317,1.739.856,4.833.093,1.25-18.076-.732-.841-6.532.325-16.473" transform="translate(186.88 244.677)" fill="#bbe6e4" stroke="#fff" stroke-linejoin="bevel" stroke-width="1"/>
    <path id="Kleberg" d="M117.583,133.3l4.511-11.643.9.22L118.48,133.31l-.9-.009M98.07,119.161l2.281,1.479,1.208,1.564.3.012,17.545.2-1.751,6.123-1.046,2.513-.108.22-.286.325-.244.151-3.094,1.585-4.5-.217-12.17,2.447-2.471-2.049L94,119.079l4.074.081" transform="translate(185.447 235.296)" fill="#bbe6e4" stroke="#fff" stroke-linejoin="bevel" stroke-width="1"/>
    <path id="Jim_Wells" data-name="Jim Wells" d="M92.339,113.63l12.14.3,2.881,2.417-4.782,4.17-.054,4.182-.407,5.433-4.074-.081-.259,14.439-6.056-.193.612-30.664" transform="translate(181.401 224.326)" fill="#bbe6e4" stroke="#fff" stroke-linejoin="bevel" stroke-width="1"/>
    <path id="Nueces" d="M126.315,121.052l-6.219,9.982-.9-.22,6.939-10.254.178.491m-31.14,7.265.407-5.433.054-4.182,4.782-4.17-.38.913.35,1.41,4.565,2.38.895.419,1.781.392,2.471.2.3-1.006,5.556-.121,2.389.121-.624.111-2.269,1.031-.654.476-.458.922-.069,1.2.244.627.6.976.735.639,1.046.5,1.723,1.344-1.088,2.474-1.018,2.037-17.545-.2-.3-.012L97.456,129.8l-2.281-1.479" transform="translate(188.342 226.14)" fill="#bbe6e4" stroke="#fff" stroke-linejoin="bevel" stroke-width="1"/>
    <path id="San_Patricio" data-name="San Patricio" d="M98.294,112.209l9.521.63,9.612,3.583,4.255,6.752-4.917.744-2.389-.121-5.556.121-.3,1.006-2.471-.2-1.781-.392-.895-.419-4.565-2.38-.349-1.41.38-.913-2.881-2.417,2.335-4.58" transform="translate(189.92 221.466)" fill="#bbe6e4" stroke="#fff" stroke-linejoin="bevel" stroke-width="1"/>
    <path id="Calhoun" d="M110.212,128.7l.461-1.781,7.753-5.312.407-.187,1.8-.774,2.673-.557.41.708-3.272,1.612-.479.217-.039.039-2.5,1.54-2.525,1.817-2.2,1.727-3.176,2.76-.069.066-.081.078.844-1.952m8.759-23.195,8.759,1.519.012,1.3-2.118.991-3.369,1.371-2.742-2.5-.313-.9-.229-1.781m-10.718,7.9-.5-.979-.829-2.106,2.648-1.847,5.161-1.766,1.832-1.018-.5.452,1.808,4.3.093.105,1.507.28.952.654,3.98,3.586.31.31.286.395-.054.259-6.466,3.242-.3.124-2.5.705-.871-.283-.244-.232-2.2-2.365-4.116-3.812" transform="translate(211.996 207.96)" fill="#bbe6e4" stroke="#fff" stroke-linejoin="bevel" stroke-width="1"/>
    <path id="Refugio" d="M113.176,107.5l9.232,1.889,4.116,3.812-.759,3.5-11.435,1.666.054.789.771,1.033,1.32.789.747.109.717.024-.214.585-4.36,3.287-3.082,1.494-.108-.015-.669-.545-9.612-3.583,5.824-8.557,7.457-6.273" transform="translate(197.842 211.978)" fill="#bbe6e4" stroke="#fff" stroke-linejoin="bevel" stroke-width="1"/>
    <path id="Bee" d="M104.414,107.308l2.718,4.929,4.9,2.989,6.014,3.107-5.824,8.557-9.521-.63.325-.253-9.259-18.714,2.9-.991,3.113-1.073.446.271.271.473,1.208.669,1.076.446,1.627.22" transform="translate(185.512 207.414)" fill="#bbe6e4" stroke="#fff" stroke-linejoin="bevel" stroke-width="1"/>
    <path id="Live_Oak" data-name="Live Oak" d="M99.56,104.318l3.094,3.818-2.9.991,9.259,18.714-.325.253-2.335,4.58-12.14-.3-3.411-.084.5-21.426,8.259-6.547" transform="translate(179.531 205.58)" fill="#bbe6e4" stroke="#fff" stroke-linejoin="bevel" stroke-width="1"/>
    <path id="McMullen" d="M86.17,106.022l15.957.217-.533,22.622-16.159-.416.735-22.424" transform="translate(168.734 209.011)" fill="#bbe6e4" stroke="#fff" stroke-linejoin="bevel" stroke-width="1"/>
    <path id="Duval" d="M85.852,113.464l16.159.416,3.411.084-.612,30.664-10.13-.353.121-3.019-1.03-.636-8.542-.039.624-27.118" transform="translate(168.318 223.992)" fill="#bbe6e4" stroke="#fff" stroke-linejoin="bevel" stroke-width="1"/>
    <path id="Webb" d="M69.435,111.084l3.3.108,24.759.72-.069,6.722,20.221-.38-.624,27.118-5.541,3.1-13.173-.585-1.223-1.82-2.974,1.995-.585-.051-.744-.467-.069-.024-1.169-1.139-.148-.163-.054-.069-.027-.027-.039-.148.16-.217.964-1.293.545-1.29.2-.747.365-2.9-1.235-3.438-.72-1.262-.464-.34-1.534-1.115-.786-.136-.093.054-.042.166-1.344-.054-5.936-5.487-1.073-1.275L76.6,119.217l-2.917-5.906-.166-.136-4.086-2.091" transform="translate(136.525 219.201)" fill="#bbe6e4" stroke="#fff" stroke-linejoin="bevel" stroke-width="1"/>
    <path id="La_Salle" data-name="La Salle" d="M99.7,106.177l-.024.353-.735,22.424-20.221.38.069-6.722.542-16.84,20.369.407" transform="translate(155.224 208.503)" fill="#bbe6e4" stroke="#fff" stroke-linejoin="bevel" stroke-width="1"/>
    <path id="Dimmit" d="M71.262,105.35l24.12,1.25.449.015-.542,16.84-24.759-.72.732-17.386" transform="translate(138.729 207.658)" fill="#bbe6e4" stroke="#fff" stroke-linejoin="bevel" stroke-width="1"/>
    <path id="Maverick" d="M83.717,100.273l-.832,16.919-.732,17.386-3.3-.108-.124-.136-1.464-1.615-1.088-1.4-1.684-5.177-4.887-13.131-4.348-9.63-.5-3.914,18.961.8" transform="translate(127.105 195.817)" fill="#bbe6e4" stroke="#fff" stroke-linejoin="bevel" stroke-width="1"/>
    <path id="Kinney" d="M67.338,92.524l19.868.952-.868,20.775-18.961-.8-3.923-6.285,1.046.19.136-.027.437-.639,1.356-3.2.19-.937L67,99.638l.34-7.114" transform="translate(124.484 181.838)" fill="#bbe6e4" stroke="#fff" stroke-linejoin="bevel" stroke-width="1"/>
    <path id="Edwards" d="M85.588,84.814l12.155.5L97.293,93.7l-2.959-.108L90.246,93.1l-2.01,7.373-.368,5.6.054,4.728-3.311-.133-19.868-.952,1.262-25.738,19.582.832" transform="translate(127.079 164.642)" fill="#bbe6e4" stroke="#fff" stroke-linejoin="bevel" stroke-width="1"/>
    <path id="Real" d="M81.843,87.6l2.284.09-.244,5.08.678,1.371,2.242.127-.422,10.847-13.908-.407-.054-4.728.368-5.6,2.01-7.373,4.089.488,2.959.108" transform="translate(142.53 170.733)" fill="#bbe6e4" stroke="#fff" stroke-linejoin="bevel" stroke-width="1"/>
    <path id="Uvalde" d="M71.917,92.84l3.311.133,13.908.407,6.463.229-.814,20.754-23.737-.747.868-20.775" transform="translate(139.774 182.474)" fill="#bbe6e4" stroke="#fff" stroke-linejoin="bevel" stroke-width="1"/>
    <path id="Zavala" d="M95.342,100.482,94.893,117.9l-24.12-1.25L71.6,99.735l23.737.747" transform="translate(139.218 196.354)" fill="#bbe6e4" stroke="#fff" stroke-linejoin="bevel" stroke-width="1"/>
    <path id="Frio" d="M99.966,100.688,99.6,117.827l-20.369-.407-.449-.015.449-17.422,20.739.705" transform="translate(155.333 196.853)" fill="#bbe6e4" stroke="#fff" stroke-linejoin="bevel" stroke-width="1"/>
    <path id="Goliad" d="M113.585,105.1l2.525-.012.991.458.491.994.651,1.684.151,8.949-7.457,6.273-6.014-3.107-4.9-2.989L97.3,112.426l7.078-5.493,5.433-4.245h.214l.9.34,1.507.841.464.41.69.826" transform="translate(192.624 202.297)" fill="#bbe6e4" stroke="#fff" stroke-linejoin="bevel" stroke-width="1"/>
    <path id="Victoria" d="M114.047,100.457l1.275,1.585,3.384,1.494.229.163,2.444,4.833,3.884,7.213-.2.093-1.832,1.018-5.161,1.766-2.649,1.847.829,2.106.5.979-9.232-1.889-.151-8.949-.651-1.684-.491-.994-.991-.458-2.525.012,11.341-9.136" transform="translate(203.503 197.808)" fill="#bbe6e4" stroke="#fff" stroke-linejoin="bevel" stroke-width="1"/>
    <path id="DeWitt" d="M115.4,96.814l8.828,10.977-11.341,9.136-.69-.826-.464-.41-1.507-.841-.9-.34h-.214l-5.433,4.245-6.032-7.6,4.9-3.884L115.4,96.814" transform="translate(193.322 190.474)" fill="#bbe6e4" stroke="#fff" stroke-linejoin="bevel" stroke-width="1"/>
    <path id="Karnes" d="M108.707,98.82l3.842,4.414-4.9,3.884,6.032,7.6L106.6,120.21l-1.627-.22-1.076-.446-1.208-.669-.271-.473-.446-.271L98.86,119.2l-3.094-3.818-3.082-3.76L108.707,98.82" transform="translate(183.325 194.512)" fill="#bbe6e4" stroke="#fff" stroke-linejoin="bevel" stroke-width="1"/>
    <path id="Wilson" d="M109.8,98.639l3.694,6.071L97.466,117.516l-7.159-9.154,9.615-12.468.2,2,.121.488.286.518.976-.542,8.286.283" transform="translate(178.542 188.622)" fill="#bbe6e4" stroke="#fff" stroke-linejoin="bevel" stroke-width="1"/>
    <path id="Atascosa" d="M86.263,98.162l13.36,5.634,7.159,9.154,3.082,3.76-8.259,6.547.03-1.2-15.957-.217.024-.353.371-17.138.19-6.192" transform="translate(169.226 193.188)" fill="#bbe6e4" stroke="#fff" stroke-linejoin="bevel" stroke-width="1"/>
    <path id="Medina" d="M100.29,92.506l-.434,17.042-.19,6.192-20.739-.705.814-20.754,14.475.639.232.359.027.187-.108.422-.3.446.012.777.2.461.136.118.124.018,1.522-.356,4.224-4.845" transform="translate(155.633 181.801)" fill="#bbe6e4" stroke="#fff" stroke-linejoin="bevel" stroke-width="1"/>
    <path id="Bandera" d="M77.474,89.419l10.416.488,3.911.5,1.778.922,6.846,3.748,4.6,2.525-.964,1.118-4.224,4.845-1.522.356-.124-.018-.136-.118-.2-.461-.012-.777.3-.446.108-.422-.027-.187-.232-.359L83.515,100.5l-6.463-.229.422-10.847" transform="translate(151.859 175.587)" fill="#bbe6e4" stroke="#fff" stroke-linejoin="bevel" stroke-width="1"/>
    <path id="Kerr" d="M91.151,85.132l-.163,5.906,12.806.274-.337,13.821-6.846-3.748-1.778-.922-3.911-.5-10.416-.488-2.242-.127-.678-1.371.244-5.08-2.284-.09.449-8.382,15.156.708" transform="translate(148.827 165.532)" fill="#bbe6e4" stroke="#fff" stroke-linejoin="bevel" stroke-width="1"/>
    <path id="Gillespie" d="M81.066,81.914l11.365.431,12.468.313-.259,14-11.164-.3-12.806-.274.395-14.177" transform="translate(159.144 160.479)" fill="#bbe6e4" stroke="#fff" stroke-linejoin="bevel" stroke-width="1"/>
    <path id="Blanco" d="M96.966,82.912l7.454,2.5-1.657,2.676-4.468,12.248-4.019,3.787-5.65-7.958.259-14,8.081.75" transform="translate(175.158 160.976)" fill="#bbe6e4" stroke="#fff" stroke-linejoin="bevel" stroke-width="1"/>
    <path id="Kendall" d="M85.146,86.71l11.164.3,5.65,7.958-8.027,7.253-4.52.841-4.6-2.525.337-13.821" transform="translate(167.474 170.133)" fill="#bbe6e4" stroke="#fff" stroke-linejoin="bevel" stroke-width="1"/>
    <path id="Bexar" d="M91.791,92.11l3.082-.38.274.015,4.3.557,2.079,1.669,1.44,4.279.337,1.073.964.747,1.645.527,3.218,2.16.054,1.154-.34.365-9.615,12.468-13.36-5.634.434-17.042.964-1.118,4.52-.841" transform="translate(169.616 180.239)" fill="#bbe6e4" stroke="#fff" stroke-linejoin="bevel" stroke-width="1"/>
    <path id="Guadalupe" d="M106.5,90.608l8.027,8.217L107.3,109.28,99.013,109l-.976.542-.286-.518-.121-.488-.2-2,.34-.365-.054-1.154-3.218-2.16-1.645-.527-.964-.747-.337-1.073,10.672-5.882,4.279-4.019" transform="translate(181.038 177.98)" fill="#bbe6e4" stroke="#fff" stroke-linejoin="bevel" stroke-width="1"/>
    <path id="Comal" d="M99.883,88.192l8.828,7.551.976,3.748-10.672,5.882-1.44-4.279L95.5,99.425l-4.3-.557-.274-.015-3.082.38,8.027-7.253,4.019-3.787" transform="translate(173.57 173.117)" fill="#bbe6e4" stroke="#fff" stroke-linejoin="bevel" stroke-width="1"/>
    <path id="Hays" d="M96.3,84.127l15.292,13.185-1.862,1.669-4.426,3.655-.217,1.03.313.057.515-.069-4.279,4.019-.976-3.748-8.828-7.551L96.3,84.127" transform="translate(181.618 164.934)" fill="#bbe6e4" stroke="#fff" stroke-linejoin="bevel" stroke-width="1"/>
    <path id="Caldwell" d="M102.739,89.647l2.022-1.711,11.124,11.148-.069.069-10.727,5.053-8.027-8.217-.515.069L96.234,96l.217-1.03,4.426-3.655,1.862-1.669" transform="translate(190.474 172.6)" fill="#bbe6e4" stroke="#fff" stroke-linejoin="bevel" stroke-width="1"/>
    <path id="Gonzales" d="M114.727,91.658l5.827,6.153-2.079,1.808.027,2.835-1.344,4.74-12.848,10.458-3.842-4.414-3.694-6.071L104,96.711l10.727-5.053" transform="translate(191.563 180.094)" fill="#bbe6e4" stroke="#fff" stroke-linejoin="bevel" stroke-width="1"/>
    <path id="Lavaca" d="M106.936,93.755l9.1-.081.286.081.627.38,1.832,1.711,7.807,9.41-3.339,2.757-9.6,7.686-10.1-12.562,1.344-4.74-.027-2.835,2.079-1.808" transform="translate(205.182 184.151)" fill="#bbe6e4" stroke="#fff" stroke-linejoin="bevel" stroke-width="1"/>
    <path id="Jackson" d="M116.5,98.432l.612.624,11.218,11.07-.53,11.121-8.759-1.519-2.2.093-3.884-7.213-2.444-4.833-.229-.163-3.384-1.494,9.6-7.686" transform="translate(211.932 193.731)" fill="#bbe6e4" stroke="#fff" stroke-linejoin="bevel" stroke-width="1"/>
    <path id="Matagorda" d="M115.721,109.192l11.73-7.087,3.1-3.209.8.762.2.2,1.4,4.652.868,3.372.286.964.081.124,6.722,5.3.124.066,2.064.19-.651.434-1.428.91-.636.38-7.7,4.484-2.444,1.235-3.992,1.739-2.649,1.223-4.89,2.5-1.724,1.157-.124.078-2.323,1.627-1.018.762-.283.449-.081-.283.2-.328,5.526-4.155.844-7.129-.163-.175-.229-.084-.7.1-1.558.368-.669.217-.557.443-.651,1.145-.012-1.3.53-11.121" transform="translate(224.536 194.665)" fill="#bbe6e4" stroke="#fff" stroke-linejoin="bevel" stroke-width="1"/>
    <path id="Wharton" d="M129.036,94.948l2.754,6.683,1.943,3.613,2.432,2.7,1.058.136-.895,1.275-3.1,3.209-11.73,7.087-11.218-11.07,1.22-.69,8.72-5.475.557-1.618,1.627-3.3,3.694-3.8,2.935,1.247" transform="translate(218.756 184.205)" fill="#bbe6e4" stroke="#fff" stroke-linejoin="bevel" stroke-width="1"/>
    <path id="Colorado" d="M118.063,89.468l1.142,2.1,1.383,1.253.34.307,2.133,1.482.337.163.6.121,6.49,6.412.841.91-3.694,3.8-1.627,3.3-.557,1.618-8.72,5.475-1.22.69-.612-.624,3.339-2.757-7.807-9.41L108.6,102.6l-.627-.38-.286-.081,10.377-12.67" transform="translate(213.528 175.686)" fill="#bbe6e4" stroke="#fff" stroke-linejoin="bevel" stroke-width="1"/>
    <path id="Bastrop" d="M109.9,84.145l4.48,2.579,3.926,3.1,1.835,8.09-9.955,10.145L99.064,96.912l1.482-1.359,3.938-4,4.248-8.072,1.169.669" transform="translate(196.171 163.623)" fill="#bbe6e4" stroke="#fff" stroke-linejoin="bevel" stroke-width="1"/>
    <path id="Fayette" d="M120.537,86.965l.871.762,1.112-.229,1.127-.4.5-.256,1.29.856.491,1.425.31,1.525.069.865,1.723,3.236-10.377,12.67-9.1.081-5.827-6.153.069-.069,9.955-10.145,7.78-4.17" transform="translate(203.557 170.403)" fill="#bbe6e4" stroke="#fff" stroke-linejoin="bevel" stroke-width="1"/>
    <path id="Lee" d="M108.69,85.563l6.451-3.8,3.872,4.917,3.067,3.546,3.8,1.736-5.2,5.24-7.78,4.17-1.835-8.09-3.926-3.1L102.661,87.6l6.029-2.037" transform="translate(203.412 160.169)" fill="#bbe6e4" stroke="#fff" stroke-linejoin="bevel" stroke-width="1"/>
    <path id="Austin" d="M110.558,89.7l1.208-.774,9.871-1.178.612.124,1.549.675,1.657.588.786.054.356-.422,3.787,13.282-1.9,4.887-2.935-1.247-.841-.91-6.49-6.412-.6-.121-.337-.163L115.147,96.6l-.34-.307-1.383-1.253-1.142-2.1L110.558,89.7" transform="translate(219.31 172.219)" fill="#bbe6e4" stroke="#fff" stroke-linejoin="bevel" stroke-width="1"/>
    <path id="Washington" d="M125.3,84.526l.368.488.38.271.241.081,1.823-.624.573-.693.229-.175.449.054.937.988-.148,1.537,2.049,4.1-1.751,6-.356.422-.786-.054-1.657-.588-1.549-.675-.612-.124-9.871,1.178-1.208.774-.069-.865-.31-1.525-.491-1.425-1.29-.856-.5.256-1.127.4-1.112.229-.871-.762,5.2-5.24,4.957-1.22.979-.274,5.077-1.847.3.045.151.121" transform="translate(215.452 164.426)" fill="#bbe6e4" stroke="#fff" stroke-linejoin="bevel" stroke-width="1"/>
    <path id="Waller" d="M117.632,86.628l9.708-.8.054,6.029-1.8-.446-1.82-1.018-.681-.642-.991-.735.464,1.5,4.089,13.053-6.981,2.347L115.881,92.63l1.751-6" transform="translate(230.025 168.354)" fill="#bbe6e4" stroke="#fff" stroke-linejoin="bevel" stroke-width="1"/>
    <path id="Fort_Bend" data-name="Fort Bend" d="M118.408,94.06l6.981-2.347,13.619,8.012-1.262,5.472-4.387,4.387-1.154.6-2.986-.042-1.3-.464-1.534.654-1.687,1.754-1.058-.136-2.432-2.7-1.943-3.613-2.754-6.683,1.9-4.887" transform="translate(231.286 180.205)" fill="#bbe6e4" stroke="#fff" stroke-linejoin="bevel" stroke-width="1"/>
    <path id="Brazoria" d="M134.137,94.372l7.036.895-.527,3.5,3.9,6.532,2.2,3.718-2.459,4.429.368.286-.2.419-8.527,7.457-4.441,2.022-2.064-.19-.124-.066-6.722-5.3-.081-.124-.286-.964-.868-3.372-1.4-4.652-.2-.2-.8-.762.895-1.275,1.687-1.754,1.534-.654,1.3.464,2.986.042,1.154-.6,4.387-4.387,1.262-5.472" transform="translate(236.157 185.558)" fill="#bbe6e4" stroke="#fff" stroke-linejoin="bevel" stroke-width="1"/>
    <path id="Galveston" d="M155.3,94.556l-1.006.464-3.013,1.386-.232.108-.148.081-2.715,1.262-.422.2-1.22.654-.22.136-.693.437-.407.244-.12.093-.395.3-.286.2-.136.163-.1.081-.244.259-.081.121-.3.449-.139.2-.163.392-.069.154-1.03.3-.585.03-.12-.108-.027-.455.542-.69,2.853-3.055.3-.214,2.594-1.235,1.739-.6.437-.054.322-.136-.175-.422v-.557l5.255-.19m-21.917.313,1.561,1.766,5.571,5.96,2.7.8-1.847,1.618-.582.449-3.221,2.212-4.05,2.784-.244.16-.434.344-1.22.934-.217.178-.124.1-.488.461-.365.34-.286.395-.368-.286,2.459-4.429-2.2-3.718-3.9-6.532.527-3.5,1.63,1.63,3.381-1.742,1.711.084" transform="translate(250.668 185.928)" fill="#bbe6e4" stroke="#fff" stroke-linejoin="bevel" stroke-width="1"/>
    <path id="Montgomery" d="M119.387,80.868l7.753,4.7,3.6-.015,2.188-.012,2.254.148L141.7,91.83l2.377,6.882-3.384,3.206-2.2,2.079-.991.111-.594-.127-.359-.774-.973-.91-2.447-1.314-4.249-2.254-1.591,1.383-2.377,1.127-2.227.449-.735.066-1.615.081-.054-6.029-.895-14.939" transform="translate(237.083 158.373)" fill="#bbe6e4" stroke="#fff" stroke-linejoin="bevel" stroke-width="1"/>
    <path id="Harris" d="M123.241,89.915l1.615-.081.735-.066,2.227-.449,2.377-1.127,1.591-1.383,4.249,2.254,2.447,1.314.973.91.359.774.594.127.991-.111L143.6,90l3.384-3.206,4.035,10.935,1.724,8.075-2.866,4.7-1.711-.084-3.381,1.742-1.63-1.63-7.036-.895L122.5,101.624l-4.089-13.053-.464-1.5.991.735.681.642,1.82,1.018,1.8.446" transform="translate(234.178 170.295)" fill="#bbe6e4" stroke="#fff" stroke-linejoin="bevel" stroke-width="1"/>
    <path id="Chambers" d="M147.062,90.27l2.85.024.371,12.119-.03.512-.557.259-5.255.19-7.075-1.127.856-1.6.488-2.691.012-.352-.108-.762-1-1.98-.368-.41-.19-.069-1.727.789-.8.422-3.884,3.2-1.724-8.075,18.142-.449" transform="translate(256.274 177.3)" fill="#bbe6e4" stroke="#fff" stroke-linejoin="bevel" stroke-width="1"/>
    <path id="Hardin" d="M137.836,82.244,153.7,82l-.844,2.061-.3.9-.368,1.507.1.542L152.9,88.4l.108.036.341.356-.612,3.787-.349.491.121,3.14-.217-.22-2.489-.829-.47.066-2.191.708-.081.108-.027.434.081.615-.093.244-.449.648-.244.136-3.4.723-.53-.1-.937-.488-5.092.108-4.782-14.6,6.249-1.522" transform="translate(261.643 160.652)" fill="#bbe6e4" stroke="#fff" stroke-linejoin="bevel" stroke-width="1"/>
    <path id="Liberty" d="M137.332,82.558l3.908.084,4.782,14.6,5.092-.108.232,8.666-18.142.449L129.169,95.31l-2.377-6.882,10.54-5.87" transform="translate(251.99 161.775)" fill="#bbe6e4" stroke="#fff" stroke-linejoin="bevel" stroke-width="1"/>
    <path id="Jefferson" d="M134.864,89.462l.937.488.53.1,3.4-.723.244-.136.449-.648.093-.244-.081-.615.027-.434.081-.108,2.191-.708.47-.066,2.489.829.217.22.081.473.705,2.444.093.105,4.676,3.043,2.808.723.434.19.518.8.124.313.066.383-.057.883.3,8.663-3.137.5-.832-.015-1.546-.015-1.859.437-2.555,1.018-7.442,3.42.03-.512-.371-12.119-2.85-.024-.232-8.666" transform="translate(268.24 169.443)" fill="#bbe6e4" stroke="#fff" stroke-linejoin="bevel" stroke-width="1"/>
    <path id="Orange" d="M151.954,85.538l-.024,7.506-3.872,5.4.057-.883-.066-.383-.124-.313-.518-.8-.434-.19-2.808-.723-4.676-3.043L139.4,92l-.705-2.444-.081-.473-.121-3.14,7.25-.193,6.216-.214" transform="translate(275.538 167.774)" fill="#bbe6e4" stroke="#fff" stroke-linejoin="bevel" stroke-width="1"/>
    <path id="Travis" d="M94.975,88.4l2.7-7.632,3.11-.093,1.317.934,1.591,2.3.594,2.853,1.238,1.046,1.061.353.771-.027,2.269-.8,3.125-1.507h.678l2.13.675,4.74,2.615-4.248,8.072-3.938,4-1.482,1.359-2.022,1.711L93.318,91.076,94.975,88.4" transform="translate(184.604 157.984)" fill="#bbe6e4" stroke="#fff" stroke-linejoin="bevel" stroke-width="1"/>
    <path id="Kent" d="M80.929,44.5l-.856,16.949-4.441-.229-12.4-.9.883-16.638,16.813.817" transform="translate(124.039 83.518)" fill="#bbe6e4" stroke="#fff" stroke-linejoin="bevel" stroke-width="1"/>
    <path id="Kimble" d="M93.473,79.682l-.313,8.19,6.044.2-.232,8.271-15.156-.708-12.155-.5.72-16.286,21.092.829" transform="translate(141.006 154.316)" fill="#bbe6e4" stroke="#fff" stroke-linejoin="bevel" stroke-width="1"/>
    <path id="Sutton" d="M91.288,79.64l-.72,16.286-19.582-.832-8.717-.419.841-16.214L91.288,79.64" transform="translate(122.099 153.529)" fill="#bbe6e4" stroke="#fff" stroke-linejoin="bevel" stroke-width="1"/>
    <path id="Schleicher" d="M72.34,73.911l19.052.829L90.726,89.4,62.548,88.226l.705-14.614,9.088.3" transform="translate(122.66 143.766)" fill="#bbe6e4" stroke="#fff" stroke-linejoin="bevel" stroke-width="1"/>
    <path id="Menard" d="M72.566,73.986l17,.717,3.721,5.842-.3,8.934L71.9,88.651l.666-14.665" transform="translate(141.487 144.519)" fill="#bbe6e4" stroke="#fff" stroke-linejoin="bevel" stroke-width="1"/>
    <path id="Mason" d="M79.408,76.163l13.065.446,4.221.9-.488,16.415L84.84,93.492l-6.044-.2.313-8.19.3-8.934" transform="translate(155.369 148.901)" fill="#bbe6e4" stroke="#fff" stroke-linejoin="bevel" stroke-width="1"/>
    <path id="Llano" d="M85.062,76.609l17.277.488,2.212,3.48L104.7,90.72l.425,3.369-8.081-.75-12.468-.313.488-16.415" transform="translate(167.001 149.799)" fill="#bbe6e4" stroke="#fff" stroke-linejoin="bevel" stroke-width="1"/>
    <path id="Burnet" d="M108.353,75.569l2.664,5.05L103.411,91.43l-2.7,7.632-7.454-2.5L92.829,93.2l-.148-10.142-2.212-3.48.31-4.194,17.572.19" transform="translate(178.87 147.323)" fill="#bbe6e4" stroke="#fff" stroke-linejoin="bevel" stroke-width="1"/>
    <path id="Williamson" d="M102.37,77.118l5.77,1.281.991.244,10.242,4.737,5.213,11.528-6.029,2.037-1.169-.669-4.74-2.615-2.13-.675h-.678l-3.125,1.507-2.269.8-.771.027-1.061-.353-1.238-1.046-.594-2.853-1.591-2.3-1.317-.934-3.11.093,7.605-10.811" transform="translate(187.517 150.824)" fill="#bbe6e4" stroke="#fff" stroke-linejoin="bevel" stroke-width="1"/>
    <path id="Burleson" d="M118.307,79.556l1.79,1.371-.19.247-.949,1.79v.108l3.1.738,2.85,1.329,3.6,5.134.5,2.947-.151-.121-.3-.045L123.48,94.9l-.979.274-4.957,1.22-3.8-1.736-3.067-3.546L106.8,86.2l11.5-6.641" transform="translate(211.75 155.732)" fill="#bbe6e4" stroke="#fff" stroke-linejoin="bevel" stroke-width="1"/>
    <path id="San_Jacinto" data-name="San Jacinto" d="M125.578,77.888l4.267,1.335,2.293,2.389,8.476,8.123,1.073,2.224-10.54,5.87-6.517-6.141.949-13.8" transform="translate(247.636 152.374)" fill="#bbe6e4" stroke="#fff" stroke-linejoin="bevel" stroke-width="1"/>
    <path id="Walker" d="M133.256,75.339l3.61,7.68-.949,13.8-2.254-.148-2.188.012-3.6.015L120.122,92l-1.1-9.072,8.16-2.606,6.074-4.981" transform="translate(236.348 147.242)" fill="#bbe6e4" stroke="#fff" stroke-linejoin="bevel" stroke-width="1"/>
    <path id="Grimes" d="M116.051,79.445l10.184-1.588,1.1,9.072.895,14.939-9.708.8-2.049-4.1,2.347-3.492-1.193-.829-.247-.434-.38-.7-1.561-5.234.283-4.019.328-4.414" transform="translate(229.135 152.311)" fill="#bbe6e4" stroke="#fff" stroke-linejoin="bevel" stroke-width="1"/>
    <path id="Brazos" d="M125.315,82.294l-.328,4.414-.283,4.019,1.561,5.234.38.7.247.434,1.193.829-2.347,3.492.148-1.537-.937-.988-.449-.054-.229.175-.572.693-1.823.624-.241-.081-.38-.271-.368-.488-.5-2.947-3.6-5.134-2.85-1.329-3.1-.738v-.108l.949-1.79.19-.247,3.7-1.871.91-1.588.663-1.537.747-1.422.9-1.4.419-.545.545-.473.991-.681,1.359-.9.705-.337,2.4,5.851" transform="translate(219.871 149.463)" fill="#bbe6e4" stroke="#fff" stroke-linejoin="bevel" stroke-width="1"/>
    <path id="Madison" d="M114.844,79.573l2.308-.8,3-1.995,3.5-1.793,7.036-.1,4.9,6.343-8.159,2.606-10.184,1.588-2.4-5.851" transform="translate(227.938 146.333)" fill="#bbe6e4" stroke="#fff" stroke-linejoin="bevel" stroke-width="1"/>
    <path id="Leon" d="M133.171,72.562l.34.569.612,1.371,1.479,4.233-.744,1.892-.139-.027-.283.163-.747.841-1.669,5.279.039.506.34,1.115-7.036.1-3.5,1.793-3,1.995-2.308.8L114,78.265l2.745-2.175L131.6,68.123l1.573,4.438" transform="translate(226.231 132.716)" fill="#bbe6e4" stroke="#fff" stroke-linejoin="bevel" stroke-width="1"/>
    <path id="Robertson" d="M116.106,76.744l9.232-5.255,2.555,14.924-.705.337-1.359.9-.991.681-.545.473-.419.545-.9,1.4-.747,1.422-.663,1.537-.91,1.588-3.7,1.871-1.79-1.371-1.6-4.032L110.7,88.1l-1.943-5.677-.395-1.262,7.744-4.414" transform="translate(214.889 139.492)" fill="#bbe6e4" stroke="#fff" stroke-linejoin="bevel" stroke-width="1"/>
    <path id="Milam" d="M119.293,74.7l.395,1.262,1.943,5.677L124.5,85.3l1.6,4.032-11.5,6.641-6.451,3.8-5.213-11.528,1.956-5.3,6.343-3.676,8.063-4.577" transform="translate(203.958 145.952)" fill="#bbe6e4" stroke="#fff" stroke-linejoin="bevel" stroke-width="1"/>
    <path id="Bell" d="M112.959,71.858l4.631,1.633,6.779,11.5-6.343,3.676-1.956,5.3L105.83,89.232l-.991-.244-5.77-1.281L96.4,82.657l.178-1.332,16.376-9.467" transform="translate(190.818 140.235)" fill="#bbe6e4" stroke="#fff" stroke-linejoin="bevel" stroke-width="1"/>
    <path id="Coryell" d="M112.664,70.639l6,10.51L102.29,90.616,93.57,75.077,107.4,67.243l5.267,3.4" transform="translate(185.111 130.944)" fill="#bbe6e4" stroke="#fff" stroke-linejoin="bevel" stroke-width="1"/>
    <path id="Lampasas" d="M99.133,71.624l3.055-1.781,8.72,15.539-.178,1.332-17.572-.19-3.869-7.918,9.844-6.981" transform="translate(176.493 136.178)" fill="#bbe6e4" stroke="#fff" stroke-linejoin="bevel" stroke-width="1"/>
    <path id="Mills" d="M102.405,67.479l6.111,10.567-9.844,6.981-.084-.464-1.262-2.757-4.36-3.827-1.058,1-6.421-2.417-.859-1.127.124-.693,1.711-1.076L91.9,70.034l.747-2.974,3.025-.407,6.737.826" transform="translate(167.11 129.757)" fill="#bbe6e4" stroke="#fff" stroke-linejoin="bevel" stroke-width="1"/>
    <path id="San_Saba" data-name="San Saba" d="M87.354,69.339l-.124.693.859,1.127,6.421,2.417,1.058-1,4.36,3.827,1.262,2.757.084.464,3.869,7.918-.31,4.194-17.277-.488-4.221-.9.717-20.206,3.3-.8" transform="translate(164.507 135.164)" fill="#bbe6e4" stroke="#fff" stroke-linejoin="bevel" stroke-width="1"/>
    <path id="McCulloch" d="M91.561,70.444l3.706.368L94.55,91.017l-13.065-.446-3.721-5.842L78.4,69.006l2.145.419,3,.464,6.382.16,1.63.395" transform="translate(153.292 134.493)" fill="#bbe6e4" stroke="#fff" stroke-linejoin="bevel" stroke-width="1"/>
    <path id="Concho" d="M85.933,68.3l3.83,3.453-.639,15.722-17-.717.964-19.121,12.848.663" transform="translate(141.932 131.744)" fill="#bbe6e4" stroke="#fff" stroke-linejoin="bevel" stroke-width="1"/>
    <path id="Tom_Green" data-name="Tom Green" d="M74.672,66.058,94.094,67.1l3.923,4.568L97.053,90.79,78,89.961l.705-16.988-9.832-.654-9.139-.53.066-1.073,13.294.476.425-5.553,1.151.419" transform="translate(117 127.715)" fill="#bbe6e4" stroke="#fff" stroke-linejoin="bevel" stroke-width="1"/>
    <path id="Coke" d="M65.591,60.739l5.119.313,14.11.771-.705,15.141L64.693,75.922l.9-15.183" transform="translate(126.979 117.851)" fill="#bbe6e4" stroke="#fff" stroke-linejoin="bevel" stroke-width="1"/>
    <path id="Runnels" d="M74.574,61.211l14.354.624L87.91,81.471l-12.848-.663L71.139,76.24,71.844,61.1l2.73.111" transform="translate(139.955 118.576)" fill="#bbe6e4" stroke="#fff" stroke-linejoin="bevel" stroke-width="1"/>
    <path id="Coleman" d="M80.438,61.479l14.288.588-1.034,23.8-1.63-.395-6.382-.16-3-.464-2.145-.419L76.7,80.98l1.018-19.636,2.715.136" transform="translate(151.16 119.067)" fill="#bbe6e4" stroke="#fff" stroke-linejoin="bevel" stroke-width="1"/>
    <path id="Brown" d="M85.913,61.662l6.373.259,7.982,14.939-3.025.407L96.5,80.24l-5.433,3.637-1.711,1.076-3.3.8-3.706-.368,1.033-23.8,2.537.078" transform="translate(162.51 119.55)" fill="#bbe6e4" stroke="#fff" stroke-linejoin="bevel" stroke-width="1"/>
    <path id="Comanche" d="M98.078,59.442,105.1,72.094l2.54-1.449L109,73.116l1.633,2.986L100.362,82l-6.737-.826L85.643,66.231l12.435-6.789" transform="translate(169.153 115.24)" fill="#bbe6e4" stroke="#fff" stroke-linejoin="bevel" stroke-width="1"/>
    <path id="Hamilton" d="M99.163,66.495l6.764-3.763,7.593,13.6L99.694,84.16l-3.055,1.781L90.528,75.374,100.8,69.481l-1.633-2.986" transform="translate(178.987 121.861)" fill="#bbe6e4" stroke="#fff" stroke-linejoin="bevel" stroke-width="1"/>
    <path id="Bosque" d="M108.583,60.411l4.535,1.247-.368,2.4-.232,2.022.178,1.645,5.216,9.4.395.609,1.1.681-10.9,5.975L103.232,81,95.639,67.4,100.3,64.8l8.286-4.384" transform="translate(189.276 117.191)" fill="#bbe6e4" stroke="#fff" stroke-linejoin="bevel" stroke-width="1"/>
    <path id="Falls" d="M119.339,69.325,126.022,81.1l-7.744,4.414-8.063,4.577-6.779-11.5,15.9-9.265" transform="translate(204.972 135.136)" fill="#bbe6e4" stroke="#fff" stroke-linejoin="bevel" stroke-width="1"/>
    <path id="McLennan" d="M122.18,70.942l4.264,7.292L110.54,87.5l-4.631-1.633-6-10.51,10.9-5.975,7.973-4.48,3.4,6.041" transform="translate(197.868 126.228)" fill="#bbe6e4" stroke="#fff" stroke-linejoin="bevel" stroke-width="1"/>
    <path id="Hill" d="M101.84,63.1l12.818-3.408,6.168,7.524,5.731,10.142-7.063,4.062-3.4-6.041-7.973,4.48-1.1-.681-.395-.609-5.216-9.4-.178-1.645.232-2.022.368-2.4" transform="translate(200.553 115.747)" fill="#bbe6e4" stroke="#fff" stroke-linejoin="bevel" stroke-width="1"/>
    <path id="Limestone" d="M114.362,65.557l7.319.774,8.542,14.924-2.745,2.175-9.232,5.255-6.683-11.775L107.3,69.619l7.063-4.062" transform="translate(212.749 127.55)" fill="#bbe6e4" stroke="#fff" stroke-linejoin="bevel" stroke-width="1"/>
    <path id="Freestone" d="M126.71,63.288l-.3,1.817,2.917,5.418,2.106,2.121,1.115.41,2.633,3.107.286,2.218-14.858,7.967-8.542-14.924,14.571-8.391.066.259" transform="translate(222.357 122.461)" fill="#bbe6e4" stroke="#fff" stroke-linejoin="bevel" stroke-width="1"/>
    <path id="Navarro" d="M107.741,68.744l16.864-9.808,3.085,1.425,1.793,1.633,1.166,1.4,2.784,3.369,1.522,2.266.407,2.242L120.791,79.66l-7.319-.774-5.731-10.142" transform="translate(213.639 114.222)" fill="#bbe6e4" stroke="#fff" stroke-linejoin="bevel" stroke-width="1"/>
    <path id="Somervell" d="M96.347,62.049l10.877-3.125-.066,4.48-8.286,4.384-2.525-5.74" transform="translate(190.701 114.197)" fill="#bbe6e4" stroke="#fff" stroke-linejoin="bevel" stroke-width="1"/>
    <path id="Ellis" d="M105.8,56.02l1.591.057,16.6.274,2.51,7.277,2.227,1.178-16.864,9.808-6.168-7.524.108-11.07" transform="translate(209.518 108.351)" fill="#bbe6e4" stroke="#fff" stroke-linejoin="bevel" stroke-width="1"/>
    <path id="Johnson" d="M100.1,55.863l2.169.042,15.129.431-.109,11.07L104.47,70.814l-4.535-1.247.066-4.48.1-9.223" transform="translate(197.924 108.035)" fill="#bbe6e4" stroke="#fff" stroke-linejoin="bevel" stroke-width="1"/>
    <path id="Hood" d="M95.185,55.723l14.668.422-.1,9.223L98.879,68.493l-3.79-10.919.1-1.85" transform="translate(188.169 107.753)" fill="#bbe6e4" stroke="#fff" stroke-linejoin="bevel" stroke-width="1"/>
    <path id="Erath" d="M105.8,56.593l3.791,10.919,2.525,5.74-4.658,2.606-6.764,3.763-1.356-2.471L96.793,78.6,89.77,65.949l2.745-9.738,13.282.383" transform="translate(177.461 108.734)" fill="#bbe6e4" stroke="#fff" stroke-linejoin="bevel" stroke-width="1"/>
    <path id="Eastland" d="M84.82,56l16.961.5,3.3.163-2.745,9.738L89.9,73.194l-6.373-.259.693-16.952.6.018" transform="translate(164.895 108.277)" fill="#bbe6e4" stroke="#fff" stroke-linejoin="bevel" stroke-width="1"/>
    <path id="Callahan" d="M79.221,55.813l16.241.566-.693,16.952-2.537-.078-14.288-.588.708-16.879.569.027" transform="translate(153.654 107.88)" fill="#bbe6e4" stroke="#fff" stroke-linejoin="bevel" stroke-width="1"/>
    <path id="Taylor" d="M90.056,56.457l-.708,16.879L86.633,73.2l-14.354-.624L73.2,55.453l16.855,1" transform="translate(142.25 107.21)" fill="#bbe6e4" stroke="#fff" stroke-linejoin="bevel" stroke-width="1"/>
    <path id="Nolan" d="M84.452,56.033,83.53,73.156l-2.73-.111-14.11-.771.991-17.108,16.771.868" transform="translate(130.999 106.63)" fill="#bbe6e4" stroke="#fff" stroke-linejoin="bevel" stroke-width="1"/>
    <path id="Fisher" d="M72.452,49.733l12.155.678L83.79,67.429l-16.771-.868L68.01,49.5l4.441.229" transform="translate(131.661 95.234)" fill="#bbe6e4" stroke="#fff" stroke-linejoin="bevel" stroke-width="1"/>
    <path id="Jones" d="M73.4,49.805l5.038.2,12.221.612L90.01,67.854l-.569-.027-16.855-1L73.4,49.805" transform="translate(142.866 95.84)" fill="#bbe6e4" stroke="#fff" stroke-linejoin="bevel" stroke-width="1"/>
    <path id="Shackelford" d="M79.019,50.076l4.577.166,12.17.419-.557,17.232-.6-.018-16.241-.566.651-17.232" transform="translate(154.508 96.385)" fill="#bbe6e4" stroke="#fff" stroke-linejoin="bevel" stroke-width="1"/>
    <path id="Stephens" d="M89.227,50.433l12.179.446-.488,17.126-16.961-.5.557-17.232,4.712.163" transform="translate(165.759 96.776)" fill="#bbe6e4" stroke="#fff" stroke-linejoin="bevel" stroke-width="1"/>
    <path id="Palo_Pinto" data-name="Palo Pinto" d="M94.964,49.824l12.019.461-.72,17.313-.1,1.85-13.282-.383-3.3-.163.488-17.126,4.89-1.952" transform="translate(177.091 95.878)" fill="#bbe6e4" stroke="#fff" stroke-linejoin="bevel" stroke-width="1"/>
    <path id="Parker" d="M95.841,49.977l4.36.175,12.248.488-.491,17.114-2.169-.042-14.668-.422.72-17.313" transform="translate(188.233 96.186)" fill="#bbe6e4" stroke="#fff" stroke-linejoin="bevel" stroke-width="1"/>
    <path id="Tarrant" d="M101.2,50.2l4.725.232,11.884.365-.38,17.006-1.591-.057-15.129-.431L101.2,50.2" transform="translate(199.483 96.629)" fill="#bbe6e4" stroke="#fff" stroke-linejoin="bevel" stroke-width="1"/>
    <path id="Dallas" d="M106.638,50.429l6.083-.051,10.648.283-.108,6.575-.407,10.474-16.6-.274.38-17.006" transform="translate(210.653 96.993)" fill="#bbe6e4" stroke="#fff" stroke-linejoin="bevel" stroke-width="1"/>
    <path id="Rockwall" d="M119.141,50.526l-.018,5.457L111.9,57.047l.108-6.575,7.132.054" transform="translate(222.013 97.183)" fill="#bbe6e4" stroke="#fff" stroke-linejoin="bevel" stroke-width="1"/>
    <path id="Kaufman" d="M119.4,52.3l7.174.139.012,18.754-12.306-.078-2.51-7.277.407-10.474L119.4,52.3" transform="translate(221.741 100.865)" fill="#bbe6e4" stroke="#fff" stroke-linejoin="bevel" stroke-width="1"/>
    <path id="Rains" d="M120.538,50.522l6.409.732,1,9.359-9.735-4.538,2.323-5.553" transform="translate(234.724 97.283)" fill="#bbe6e4" stroke="#fff" stroke-linejoin="bevel" stroke-width="1"/>
    <path id="Van_Zandt" data-name="Van Zandt" d="M121.307,52.4l9.735,4.538,1.332,1.293.057,8.075,4.016,4.279.735.56L116.691,71.1l-.012-18.754,4.628.054" transform="translate(231.632 100.957)" fill="#bbe6e4" stroke="#fff" stroke-linejoin="bevel" stroke-width="1"/>
    <path id="Henderson" d="M124.9,58.624l20.492.045-.3,8.557,1.043,1.98-20.492,3.11-.066-.259-.407-2.242-1.522-2.266L120.87,64.18l-1.166-1.4-1.793-1.633-3.085-1.425L112.6,58.545l12.306.078" transform="translate(223.418 113.434)" fill="#bbe6e4" stroke="#fff" stroke-linejoin="bevel" stroke-width="1"/>
    <path id="Anderson" d="M137.619,62.083l-.582,5.285.53,2.805,1.223,4.4,2.305,2.1.449.1.75.91.461.964.473,1.507.1.383-.461.651-7.256,1.13-5.24.922-2.908,1.479-1.573-4.438-.286-2.218-2.633-3.107-1.115-.41-2.106-2.121-2.917-5.418.3-1.817,20.492-3.11" transform="translate(231.94 120.557)" fill="#bbe6e4" stroke="#fff" stroke-linejoin="bevel" stroke-width="1"/>
    <path id="Houston" d="M121.129,71.956l2.908-1.479,5.24-.922,7.256-1.13,2.118.817,3.284,3.366,3.586,2.215,1.522,1.51L131.331,89.26l-6.074,4.981-4.9-6.343-.34-1.115-.039-.506L121.647,81l.747-.841.283-.163.139.027.744-1.892L122.081,73.9l-.612-1.371-.34-.569" transform="translate(238.273 133.322)" fill="#bbe6e4" stroke="#fff" stroke-linejoin="bevel" stroke-width="1"/>
    <path id="Trinity" d="M143.382,80.347l-11.76,12.646-4.267-1.335-3.61-7.68,15.71-12.929,3.926,9.3" transform="translate(245.858 138.604)" fill="#bbe6e4" stroke="#fff" stroke-linejoin="bevel" stroke-width="1"/>
    <path id="Polk" d="M147.5,77.409,144.324,79.3l4.035,18.784L142.109,99.6l-3.908-.084-1.073-2.224-8.476-8.123L126.36,86.78l11.76-12.646,3.772,1.579,2.9.609L147.5,77.41" transform="translate(251.121 144.817)" fill="#bbe6e4" stroke="#fff" stroke-linejoin="bevel" stroke-width="1"/>
    <path id="Newton" d="M150.855,73.771l1.546-.407.124,12.318-.6,2.606-4.767,8.976-.38,1.359v.015l.1.1.937,1.13.473,2.423-.012.2-.136.337-1.281,1.076-.036.036,1.027,6.1-6.216.214.5-16.5.081-10.9-1.687-8.147,10.326-.949" transform="translate(279.644 143.267)" fill="#bbe6e4" stroke="#fff" stroke-linejoin="bevel" stroke-width="1"/>
    <path id="Jasper" d="M148.367,74.821l4.236-1.006,1.687,8.147-.081,10.9-.5,16.5-7.25.193.35-.491.612-3.787-.341-.356-.108-.036-.609-1.389-.1-.542.368-1.507.3-.9.844-2.061-.5-.817-.35-1.142.09-.3.75-1.443-.163-1.558-2.374-4.712-.3-.256-.75-.109-.2-.042-.078-.093-2.242-6.535.229-1.3-.121-.31-.395-.41-1.549-.6-1.971.054L134.531,79,145.4,76.246l2.971-1.425" transform="translate(267.57 144.173)" fill="#bbe6e4" stroke="#fff" stroke-linejoin="bevel" stroke-width="1"/>
    <path id="Tyler" d="M138.978,76.17l3.311-.093,1.971-.054,1.549.6.395.41.121.31-.229,1.3,2.242,6.535.078.093.2.042.75.108.3.256,2.374,4.713.163,1.558-.75,1.443-.09.3.35,1.142.5.817-15.861.244-4.035-18.784,3.179-1.886,3.477.949" transform="translate(263.123 147.005)" fill="#bbe6e4" stroke="#fff" stroke-linejoin="bevel" stroke-width="1"/>
    <path id="Angelina" d="M132.965,69.231l1.41,1.561,6.138,1.576L142,72.124l1.3.545,1.754.919.422.452,5.511,6.68,6.644,4.752-10.865,2.757-3.477-.949-2.715-1.088-2.9-.609L133.9,84l-3.926-9.3-1.522-1.51,4.511-3.965" transform="translate(255.338 134.946)" fill="#bbe6e4" stroke="#fff" stroke-linejoin="bevel" stroke-width="1"/>
    <path id="Sabine" d="M145.777,68.265l3.57,3.751,3.043,4.414.991,4.321.229,1.275.344,2.01-10.326.949-4.236,1.006-.283-.91-.121-5.418.027-4.387,1.41-1.519.554-.708-.133-4,4.929-.78" transform="translate(276.544 133.002)" fill="#bbe6e4" stroke="#fff" stroke-linejoin="bevel" stroke-width="1"/>
    <path id="San_Augustine" data-name="San Augustine" d="M148.788,70.541l.133,4-.554.708-1.41,1.519-.027,4.387.12,5.418.283.91-2.971,1.425-6.644-4.752.178-4.643.244-8.871-2.308-2.579-.786-.545,10.2,1.088,3.543,1.931" transform="translate(268.604 131.506)" fill="#bbe6e4" stroke="#fff" stroke-linejoin="bevel" stroke-width="1"/>
    <path id="Shelby" d="M133.747,63.756l16.295-.527,4.631,5.174,1.657,10-4.929.78-3.543-1.931-10.2-1.088-1.889-7.4-2.022-5.011" transform="translate(265.991 122.862)" fill="#bbe6e4" stroke="#fff" stroke-linejoin="bevel" stroke-width="1"/>
    <path id="Nacogdoches" d="M129.942,65.244l15.954-.178,1.889,7.4.786.545,2.308,2.579-.244,8.871-.178,4.643-5.511-6.68-.422-.452-1.754-.919-1.3-.545-1.482.244-6.138-1.576-1.41-1.561-1.8-1.769-.16-.256-.814-2.212-.6-2.242-.353-3.48,1.226-2.413" transform="translate(255.864 126.562)" fill="#bbe6e4" stroke="#fff" stroke-linejoin="bevel" stroke-width="1"/>
    <path id="Cherokee" d="M123.385,61.575l15.578-.223,1.711,11.368-1.226,2.413.353,3.48.6,2.242.814,2.212.16.256,1.8,1.769-4.511,3.965-3.586-2.215-3.284-3.366-2.118-.817.461-.651-.1-.383-.473-1.507-.461-.964-.75-.91-.449-.1-2.305-2.1-1.223-4.4-.53-2.805.582-5.285-1.043-1.98" transform="translate(245.132 119.085)" fill="#bbe6e4" stroke="#fff" stroke-linejoin="bevel" stroke-width="1"/>
    <path id="Panola" d="M150.834,57.905,151,65.549l1.058,8.395-16.295.527-2.9.069-.111-4.155.636-4.809.72-1.8,1.046-1.844.982-2.377.024-1.479.937.829,3.543,1.522.274.051,9.925-2.576" transform="translate(263.976 112.146)" fill="#bbe6e4" stroke="#fff" stroke-linejoin="bevel" stroke-width="1"/>
    <path id="Rusk" d="M141.808,57.987l2.865-.024-.024,1.479-.982,2.377-1.046,1.844-.72,1.8-.636,4.809.111,4.155,2.9-.069,2.022,5.011-15.954.178-1.711-11.368-.124-9.015,5.773-.124,5.418-.054,2.1-.994" transform="translate(255.457 112.263)" fill="#bbe6e4" stroke="#fff" stroke-linejoin="bevel" stroke-width="1"/>
    <path id="Gregg" d="M128.473,59.507l.53-.054,4.917-2.106,1.94-2.7.244-.108,1.534.175.1.19.12,7.771.042,1.166,1.943.937,1.723.226.325-.121-2.1.994-5.418.054-5.773.124-.124-6.547" transform="translate(255.374 105.368)" fill="#bbe6e4" stroke="#fff" stroke-linejoin="bevel" stroke-width="1"/>
    <path id="Smith" d="M121.888,54.3l2.95,2.643.934.41,9.383,2.35.235-.027.624-.3.3-.606,5.418,1.22.124,6.547.124,9.015-15.578.223.3-8.557-.735-.56-4.016-4.279-.057-8.075" transform="translate(242.118 104.889)" fill="#bbe6e4" stroke="#fff" stroke-linejoin="bevel" stroke-width="1"/>
    <path id="Wood" d="M137.751,50.045l.039,4.33.081,12.956-.3.606-.624.3-.235.027-9.383-2.35-.934-.41-2.95-2.643-1.332-1.293-1-9.359,11.57-.148,5.068-2.022" transform="translate(240.558 96.323)" fill="#bbe6e4" stroke="#fff" stroke-linejoin="bevel" stroke-width="1"/>
    <path id="Harrison" d="M131.52,52.843l6.409,3.772,4-.036L143,56.034l3.872-.5,2.29-.19,1.66.2,2.227.829L153.3,68.1l-9.925,2.576-.274-.051L139.559,69.1l-.937-.829-2.865.024-.325.121-1.723-.226-1.943-.937-.042-1.166-.12-7.771-.081-5.472" transform="translate(261.508 101.956)" fill="#bbe6e4" stroke="#fff" stroke-linejoin="bevel" stroke-width="1"/>
    <path id="Upshur" d="M126.648,51.647l14.041-.247.476.991.163,3.357.081,5.472-.1-.19-1.534-.175-.244.108-1.94,2.7-4.917,2.106-.53.054-5.418-1.22-.081-12.956" transform="translate(251.7 99.051)" fill="#bbe6e4" stroke="#fff" stroke-linejoin="bevel" stroke-width="1"/>
    <path id="Camp" d="M126.635,51.708l.841-.832,2.769-1.51.72-.139.585-.009,1.913.03.437.148,1.724,2.133,1.82,1.247,3.272,3.013-14.041.247-.039-4.33" transform="translate(251.674 94.66)" fill="#bbe6e4" stroke="#fff" stroke-linejoin="bevel" stroke-width="1"/>
    <path id="Marion" d="M133.15,51.991l19.868-.41.136,7.334-2.227-.829-1.66-.2-2.29.19-3.872.5-1.073.545-4,.036-6.409-3.772-.163-3.357,1.684-.036" transform="translate(261.4 99.415)" fill="#bbe6e4" stroke="#fff" stroke-linejoin="bevel" stroke-width="1"/>
    <path id="Cass" d="M131.975,47.918l.081.374.271.217,1.088.214,12.182.069.069-.111-.112-.353-.093-.814.518-.922L147,46.24l.8-.181,2.92.467.678.35.274.612.2,9.82.12,5.39-19.868.41-.151-15.189" transform="translate(262.424 88.299)" fill="#bbe6e4" stroke="#fff" stroke-linejoin="bevel" stroke-width="1"/>
    <path id="Morris" d="M130.382,45.469l2.028,1.332,3.094,2.305.151,15.189-1.684.036-.476-.991-3.272-3.013.16-14.858" transform="translate(258.895 87.111)" fill="#bbe6e4" stroke="#fff" stroke-linejoin="bevel" stroke-width="1"/>
    <path id="Titus" d="M137.115,46.065l-.16,14.858-1.82-1.247-1.724-2.133-.437-.148-1.913-.03-.585.009-.72.139-2.769,1.51-.111-13.848,10.239.892" transform="translate(252.161 86.515)" fill="#bbe6e4" stroke="#fff" stroke-linejoin="bevel" stroke-width="1"/>
    <path id="Franklin" d="M130.823,45.173l.111,13.848-.841.832-5.068,2.022-.108-16.162.066-.051,5.839-.488" transform="translate(248.216 86.515)" fill="#bbe6e4" stroke="#fff" stroke-linejoin="bevel" stroke-width="1"/>
    <path id="Hopkins" d="M119,51.574,121.661,50l1.452-1.7,4.02-1.835.774-.325,1.657-.054,7.292-.732.108,16.162-11.57.148-6.409-.732L119,51.574" transform="translate(236.276 86.876)" fill="#bbe6e4" stroke="#fff" stroke-linejoin="bevel" stroke-width="1"/>
    <path id="Delta" d="M119.113,45.17,121.626,44l.6-.163,4.48.325.627.1,3.543,1.112.627.271,3.272,2.227,2.076.38.066.1-.066.051-7.292.732-1.657.054-.774.325-4.019,1.835-1.452,1.7-2.664,1.579.084-7.427.039-2.025" transform="translate(236.284 83.828)" fill="#bbe6e4" stroke="#fff" stroke-linejoin="bevel" stroke-width="1"/>
    <path id="Hunt" d="M128.52,44.952l-.084,7.427-.012,9.356L126.1,67.288l-4.628-.054L114.3,67.1l.018-5.457.105-14.448,14.1-2.239" transform="translate(226.839 86.07)" fill="#bbe6e4" stroke="#fff" stroke-linejoin="bevel" stroke-width="1"/>
    <path id="Collin" d="M108.891,44.969l14.52.392,2.878,1.8L126.183,61.6l-7.132-.054L108.4,61.267l.488-16.3" transform="translate(214.971 86.104)" fill="#bbe6e4" stroke="#fff" stroke-linejoin="bevel" stroke-width="1"/>
    <path id="Denton" d="M103.187,44.577l14.18.72,3.528.461-.488,16.3-6.083.051-11.884-.365.747-17.166" transform="translate(202.967 85.315)" fill="#bbe6e4" stroke="#fff" stroke-linejoin="bevel" stroke-width="1"/>
    <path id="Wise" d="M97.265,44.433l13.908.256,3.354.178-.747,17.166-4.725-.232-12.248-.488.458-16.879" transform="translate(191.627 85.025)" fill="#bbe6e4" stroke="#fff" stroke-linejoin="bevel" stroke-width="1"/>
    <path id="Jack" d="M92,43.883l14.27.325,1.94,1.332L107.75,62.42l-4.36-.175-12.019-.461.585-15.141L92,43.883" transform="translate(180.684 83.918)" fill="#bbe6e4" stroke="#fff" stroke-linejoin="bevel" stroke-width="1"/>
    <path id="Young" d="M86.14,44.618l17.22.545L102.775,60.3l-4.89,1.952-12.179-.446.434-17.193" transform="translate(169.28 85.398)" fill="#bbe6e4" stroke="#fff" stroke-linejoin="bevel" stroke-width="1"/>
    <path id="Throckmorton" d="M80.687,44.411l16.732.624-.434,17.193-4.712-.163L80.1,61.646l.585-17.235" transform="translate(158 84.981)" fill="#bbe6e4" stroke="#fff" stroke-linejoin="bevel" stroke-width="1"/>
    <path id="Haskell" d="M75.179,44.217,91.91,44.8l-.585,17.235-4.577-.166-12.221-.612.651-17.042" transform="translate(146.777 84.591)" fill="#bbe6e4" stroke="#fff" stroke-linejoin="bevel" stroke-width="1"/>
    <path id="Stonewall" d="M69.678,43.955l16.988.789-.651,17.042-5.038-.2L68.822,60.9l.856-16.949" transform="translate(135.291 84.063)" fill="#bbe6e4" stroke="#fff" stroke-linejoin="bevel" stroke-width="1"/>
    <path id="Dickens" d="M64.354,38.038l16.759.759-.774,17.069L63.526,55.05l.829-17.012" transform="translate(124.629 72.152)" fill="#bbe6e4" stroke="#fff" stroke-linejoin="bevel" stroke-width="1"/>
    <path id="Motley" d="M64.777,31.836l3.043.148,13.676.633L80.56,51.283,63.8,50.523l.976-18.687" transform="translate(125.183 59.666)" fill="#bbe6e4" stroke="#fff" stroke-linejoin="bevel" stroke-width="1"/>
    <path id="Hall" d="M78.866,26.9l3.965.2-.856,16.937-3.164-.169-13.676-.633.925-16.988,12.806.651" transform="translate(127.868 48.415)" fill="#bbe6e4" stroke="#fff" stroke-linejoin="bevel" stroke-width="1"/>
    <path id="Donley" d="M82.2,21.372l-.868,17-12.806-.651-4.619-.247,1.046-16.931,17.247.826" transform="translate(125.4 36.938)" fill="#bbe6e4" stroke="#fff" stroke-linejoin="bevel" stroke-width="1"/>
    <path id="Gray" d="M65.178,14.88l17.1.856L81.5,32.778l-17.247-.826.922-17.072" transform="translate(126.099 25.532)" fill="#bbe6e4" stroke="#fff" stroke-linejoin="bevel" stroke-width="1"/>
    <path id="Roberts" d="M65.487,9.286V9.192l16.8.895.2.012-.829,17.087-17.1-.856.015-.244.91-16.8" transform="translate(126.715 14.082)" fill="#bbe6e4" stroke="#fff" stroke-linejoin="bevel" stroke-width="1"/>
    <path id="Ochiltree" d="M69.868,3.666,82.511,4.3l-.844,17.316-16.8-.895.937-17.259,4.062.2" transform="translate(127.333 2.551)" fill="#bbe6e4" stroke="#fff" stroke-linejoin="bevel" stroke-width="1"/>
    <path id="Lipscomb" d="M71.288,3.742l16.813.75-.639,17.371-16.813-.792-.2-.012.844-17.316" transform="translate(138.556 3.11)" fill="#bbe6e4" stroke="#fff" stroke-linejoin="bevel" stroke-width="1"/>
    <path id="Hemphill" d="M87.879,10.286l-.286,6.828-.419,10.242-16.937-.774.829-17.087,16.813.792" transform="translate(138.139 14.688)" fill="#bbe6e4" stroke="#fff" stroke-linejoin="bevel" stroke-width="1"/>
    <path id="Wheeler" d="M70.754,15.164l16.937.774L86.971,33,69.98,32.206l.774-17.042" transform="translate(137.622 26.104)" fill="#bbe6e4" stroke="#fff" stroke-linejoin="bevel" stroke-width="1"/>
    <path id="Collingsworth" d="M70.56,20.82l16.991.789-.259,5.948L86.83,38.652l-13.173-.627-3.965-.2.868-17" transform="translate(137.042 37.49)" fill="#bbe6e4" stroke="#fff" stroke-linejoin="bevel" stroke-width="1"/>
    <path id="Childress" d="M71.58,26.53l13.173.627-.217,7.225-.422,9.75-13.39-.666L71.58,26.53" transform="translate(139.12 48.985)" fill="#bbe6e4" stroke="#fff" stroke-linejoin="bevel" stroke-width="1"/>
    <path id="Cottle" d="M70.3,32.1l3.164.169,13.39.666-.136,3.411-.356-.7-.895.084-.313.34-.705,15.355-15.087-.663L70.3,32.1" transform="translate(136.38 60.188)" fill="#bbe6e4" stroke="#fff" stroke-linejoin="bevel" stroke-width="1"/>
    <path id="King" d="M69.88,38.29l15.087.663,1.672.084-.545,17.111-16.988-.789L69.88,38.29" transform="translate(135.862 72.659)" fill="#bbe6e4" stroke="#fff" stroke-linejoin="bevel" stroke-width="1"/>
    <path id="Knox" d="M91.882,43.181l-.407,13.053L74.744,55.65l.545-17.111,5.158.217,4.333.841,4.929,1.088,1.63,1.154.461.841.081.5" transform="translate(147.212 73.158)" fill="#bbe6e4" stroke="#fff" stroke-linejoin="bevel" stroke-width="1"/>
    <path id="Foard" d="M76.639,33.969l5.812,4.493,8.256,2.664,1.916-.316.365-.38.124-.38-.368,9.808-.108,3.923-.081-.5-.461-.841-1.63-1.154-4.929-1.088L81.2,49.354l-5.158-.217-1.672-.084L75.075,33.7l.313-.34.895-.084.356.7" transform="translate(146.459 62.559)" fill="#bbe6e4" stroke="#fff" stroke-linejoin="bevel" stroke-width="1"/>
    <path id="Hardeman" d="M80.336,31.456,81.993,33.6l.8.949,2.227,2.118L86,36.9h.271l1.235-.012,1.238-1.564.175-.066.353.051,1.522.178.488.2.789.461L91.6,48.378l-.124.38-.365.38-1.916.316L80.935,46.79,75.123,42.3l.136-3.411.422-9.75,4.655,2.32" transform="translate(147.975 54.231)" fill="#bbe6e4" stroke="#fff" stroke-linejoin="bevel" stroke-width="1"/>
    <path id="Archer" d="M86.407,38.966l17,.407-.3,14.409-.042,2.76L85.85,56l.557-17.03" transform="translate(169.57 74.02)" fill="#bbe6e4" stroke="#fff" stroke-linejoin="bevel" stroke-width="1"/>
    <path id="Baylor" d="M97.586,39.347l-.557,17.03L80.3,55.753,80.7,42.7l.108-3.923,16.774.569" transform="translate(158.391 73.639)" fill="#bbe6e4" stroke="#fff" stroke-linejoin="bevel" stroke-width="1"/>
    <path id="Wilbarger" d="M89.622,35.219l-.039.9-.027.844.554,3.013v.012l.015.018.407.121.651.2,1.2.271.6-.027,1.29-.024,2.947.232h.042L97.7,41l-.461,14.113-16.774-.569.368-9.808.476-12.221,1.046.991,1.073.093.244-.105H83.7l.042-.069.012-.03,1.371-2.456,1.4.759,1.591.856,1.507,2.621v.039" transform="translate(158.735 57.869)" fill="#bbe6e4" stroke="#fff" stroke-linejoin="bevel" stroke-width="1"/>
    <path id="Wichita" d="M97.4,35.954l.325.024.708.467.732.624,1.519,2.444.913.328.012.012.027-.027,1.711-1.537L103.035,48.8l-17-.407L86.5,34.282l2.959,1.769,2.947.72,2.091.078,2.908-.895" transform="translate(169.942 64.59)" fill="#bbe6e4" stroke="#fff" stroke-linejoin="bevel" stroke-width="1"/>
    <path id="Clay" d="M102.236,39.98l.557,1.115.081.081.054.012,1.359.407h.693l.039-.012,1.115-.271,1.2.473.012.015-.286,2.076-.829,1.793-.38,16.515-14.27-.325.3-14.409.313-10.513,1.29-1.63.624-.353,1.223.274,4.972,1.561,1.94,3.191" transform="translate(181.103 65.943)" fill="#bbe6e4" stroke="#fff" stroke-linejoin="bevel" stroke-width="1"/>
    <path id="Montague" d="M112.559,39.824l-.395,18.82-13.908-.256-1.94-1.332.38-16.515.356.328,2.835,1.293.383.036,1-.3,1.6-1.262,1.684-1.751,1.1-1.386,3.272,2.184,1.154.8,2.474-.666" transform="translate(190.637 71.071)" fill="#bbe6e4" stroke="#fff" stroke-linejoin="bevel" stroke-width="1"/>
    <path id="Cooke" d="M119.283,37.915l-.175,20.793-14.18-.72-3.354-.178.395-18.82.636,2.9.084.2.027.069v.015l.19.229.283.19,9.359,4.089.449.151.515.066.461-.148.325-.259.151-.2,4.833-8.382" transform="translate(201.226 71.904)" fill="#bbe6e4" stroke="#fff" stroke-linejoin="bevel" stroke-width="1"/>
    <path id="Fannin" d="M130.833,39.8l-.434,14.8-.039,2.025-14.1,2.239-2.878-1.8L113.6,44.2l.31.425,4.794-1.184.666-.178.585-.25.039-.048.3-.313.039-.051.015-.027.081-.259.093-.3.027-.108.015-.1.2-.937.271-.952,1.63-.377,3.613-.3.693-.051.437-.045,1.859.368,1.561.286" transform="translate(224.999 74.39)" fill="#bbe6e4" stroke="#fff" stroke-linejoin="bevel" stroke-width="1"/>
    <path id="Grayson" d="M107.882,37.857l1.63,3.351.527.591.325.226,3.031.928,1.561-.262.027-.012,3.218-1.452-.108.624.027.479.027.187.027.093,3.3,2.215.3.2h.042l1.645-.313.38.042.422.136V44.9l1.4,1.9-.217,12.872-14.52-.392-3.528-.461.175-20.793.313-.175" transform="translate(212.94 71.787)" fill="#bbe6e4" stroke="#fff" stroke-linejoin="bevel" stroke-width="1"/>
    <path id="Lamar" d="M136.564,40.54l.2,19.16-2.076-.38-3.272-2.227-.627-.271-3.543-1.112-.627-.1-4.481-.325-.6.163-2.513,1.169.434-14.8,2.757-1.033.012-.012,2.691-1.4,2.35-1.22,1.043.054.244.1.341.868-.009.259-.1.274.009.2v.027l.127.217.121.108,3.179.422,1.205.1,2.175-.108h.015l.937-.124" transform="translate(236.367 72.377)" fill="#bbe6e4" stroke="#fff" stroke-linejoin="bevel" stroke-width="1"/>
    <path id="Aransas" d="M103.084,119.765l.669.545.108.015,3.082-1.495,4.36-3.287.214-.585-.717-.024-.747-.109-1.32-.789L107.962,113l-.054-.789,11.435-1.666-.286,1.79.407.654v.217l-.461,1-.341.259-4.33,3.558-.964.012-3,3.887-3.025,4.589-4.254-6.752m14.861-1.232-.844,1.953-6.707,8.584-.178-.491,7.729-10.046" transform="translate(204.264 218.122)" fill="#bbe6e4" stroke="#fff" stroke-linejoin="bevel" stroke-width="1"/>
    <path id="Cameron" d="M95.919,137.006l11.733,2.079,3.79-2.525,1.371-1.7.166.084,1.627,2.281-.093,3.26,1.22,6.056,2.606,4.336.084.093-.41,1.329-6.421,3.848-3.125-.955-.491-.3-.485-.377-2.013-1.591-2.959-3.3-.124-.437-4.019-.7-2.676-.464.217-11.016m21.878-2.076h.6l.964,4.047.3,1.522.407,2.865.612,4.836-.163-.03-.1-.012-.283-.395-.313-2.618.039-1.2-.163-1.428-.34-2.2-.678-3.164-.407-1.235-.476-.994" transform="translate(189.403 267.058)" fill="#bbe6e4" stroke="#fff" stroke-linejoin="bevel" stroke-width="1"/>
  </g>
</svg>
