<svg xmlns="http://www.w3.org/2000/svg" width="31.028" height="19.859" viewBox="0 0 31.028 19.859">
  <g id="Group_11" data-name="Group 11" transform="translate(-438.32 -561.141)">
    <g id="Group_10" data-name="Group 10" transform="translate(-183 142)">
      <g id="Path_11" data-name="Path 11" transform="translate(621.32 419.141)" fill="none" stroke-linecap="round">
        <path d="M15.514,0c8.568,0,15.514,9.93,15.514,9.93s-6.946,9.93-15.514,9.93S0,9.93,0,9.93,6.946,0,15.514,0Z" stroke="none"/>
        <path d="M 15.5138578414917 2.999998092651367 C 12.06395721435547 2.999998092651367 8.775728225708008 5.245848655700684 6.624738693237305 7.129888534545898 C 5.495080947875977 8.119350433349609 4.5472412109375 9.121017456054688 3.842178344726562 9.929408073425293 C 4.528322219848633 10.71612071990967 5.444128036499023 11.68595409393311 6.5311279296875 12.64710807800293 C 8.704357147216797 14.56872844696045 12.02687835693359 16.85937881469727 15.5138578414917 16.85937881469727 C 18.9637565612793 16.85937881469727 22.25198745727539 14.61352825164795 24.40297698974609 12.72948837280273 C 25.53263473510742 11.74002647399902 26.4804744720459 10.73835945129395 27.18553733825684 9.92996883392334 C 26.49939346313477 9.143256187438965 25.58358764648438 8.173422813415527 24.4965877532959 7.212268829345703 C 22.32335662841797 5.290648460388184 19.00083923339844 2.999998092651367 15.5138578414917 2.999998092651367 M 15.5138578414917 -1.9073486328125e-06 C 24.08192825317383 -1.9073486328125e-06 31.02771759033203 9.929688453674316 31.02771759033203 9.929688453674316 C 31.02771759033203 9.929688453674316 24.08192825317383 19.85937881469727 15.5138578414917 19.85937881469727 C 6.94578742980957 19.85937881469727 -1.9073486328125e-06 9.929688453674316 -1.9073486328125e-06 9.929688453674316 C -1.9073486328125e-06 9.929688453674316 6.94578742980957 -1.9073486328125e-06 15.5138578414917 -1.9073486328125e-06 Z" stroke="none" fill="#42bfdd"/>
      </g>
      <g id="Ellipse_1" data-name="Ellipse 1" transform="translate(631.593 423.635)" fill="none" stroke="#42bfdd" stroke-width="3">
        <circle cx="5.241" cy="5.241" r="5.241" stroke="none"/>
        <circle cx="5.241" cy="5.241" r="3.741" fill="none"/>
      </g>
    </g>
  </g>
</svg>
