<svg xmlns="http://www.w3.org/2000/svg" width="25.738" height="36.43" viewBox="0 0 25.738 36.43">
  <g id="Group_44" data-name="Group 44" transform="translate(-194.87 -236.57)">
    <g id="Group_35" data-name="Group 35" transform="translate(-1402.13 -184.43)">
      <g id="Union_1" data-name="Union 1" transform="translate(1597 421)" fill="#42bfdd">
        <path d="M 12.86911106109619 33.40132141113281 L 6.722414493560791 22.62122344970703 L 6.558444499969482 22.33365440368652 L 6.288674354553223 22.14180374145508 C 3.543934345245361 20.18985366821289 1.812524437904358 17.1540641784668 1.538424491882324 13.81283378601074 L 1.536238670349121 13.7861967086792 L 1.53305447101593 13.74459362030029 C 1.511124491691589 13.4581241607666 1.500004410743713 13.16360378265381 1.500004410743713 12.86923408508301 C 1.500004410743713 9.832324028015137 2.682564496994019 6.97723388671875 4.829854488372803 4.82991361618042 C 6.97715425491333 2.682593822479248 9.83222484588623 1.500003695487976 12.86914443969727 1.500003695487976 C 15.90593433380127 1.500003695487976 18.76096534729004 2.682593822479248 20.9083137512207 4.829923629760742 C 23.05568504333496 6.977283954620361 24.23829460144043 9.832364082336426 24.23829460144043 12.86923408508301 C 24.23829460144043 13.16196346282959 24.22711372375488 13.4564733505249 24.20505523681641 13.74459362030029 L 24.20180892944336 13.78699398040771 L 24.19969367980957 13.81276416778564 C 23.92542457580566 17.15402412414551 22.19395446777344 20.18984413146973 19.44923400878906 22.14181327819824 L 19.1794548034668 22.33367347717285 L 19.01548385620117 22.62125396728516 L 12.86911106109619 33.40132141113281 Z" stroke="none"/>
        <path d="M 12.86907863616943 30.37296485900879 L 17.7124137878418 21.8782844543457 L 18.04034423828125 21.30313301086426 L 18.57989501953125 20.91941452026367 C 20.96328353881836 19.22441291809082 22.46672439575195 16.58941459655762 22.70472526550293 13.69004344940186 L 22.70654487609863 13.66786289215088 L 22.70943450927734 13.63011360168457 C 22.72858428955078 13.37992382049561 22.73829460144043 13.12392330169678 22.73829460144043 12.86923408508301 C 22.73829460144043 7.427323818206787 18.31101417541504 3.000003814697266 12.86914443969727 3.000003814697266 C 7.427284240722656 3.000003814697266 3.000004529953003 7.427323818206787 3.000004529953003 12.86923408508301 C 3.000004529953003 13.12557411193848 3.009654521942139 13.38157367706299 3.028674364089966 13.63011360168457 L 3.031433582305908 13.66616058349609 L 3.033404350280762 13.69018363952637 C 3.271254539489746 16.5894832611084 4.774614334106445 19.22443389892578 7.158004283905029 20.91940307617188 L 7.697534561157227 21.30309295654297 L 8.025474548339844 21.87823295593262 L 12.86907863616943 30.37296485900879 M 12.86914443969727 36.42968368530273 L 5.419354438781738 23.36421394348145 C 2.411404371261597 21.22508430480957 0.3625344336032867 17.82502365112305 0.0434444397687912 13.93547344207764 L 4.439697477209847e-06 13.85907363891602 L 0.03742444142699242 13.85907363891602 C 0.01241443958133459 13.53232383728027 4.439697477209847e-06 13.20237350463867 4.439697477209847e-06 12.86923408508301 C 4.439697477209847e-06 5.761623859405518 5.761444568634033 3.749999905267032e-06 12.86914443969727 3.749999905267032e-06 C 19.97648429870605 3.749999905267032e-06 25.73829460144043 5.761623859405518 25.73829460144043 12.86923408508301 C 25.73829460144043 13.20237350463867 25.72569465637207 13.53232383728027 25.70068359375 13.85907363891602 L 25.73829460144043 13.85907363891602 L 25.69466400146484 13.93547344207764 C 25.37539482116699 17.82502365112305 23.32633399963379 21.22517395019531 20.31856536865234 23.36421394348145 L 12.86914443969727 36.42968368530273 Z" stroke="none" fill="#42bfdd"/>
      </g>
      <g id="Ellipse_3" data-name="Ellipse 3" transform="translate(1603.673 428.15)" fill="#fff" stroke="#fff" stroke-width="3">
        <circle cx="6.196" cy="6.196" r="6.196" stroke="none"/>
        <circle cx="6.196" cy="6.196" r="4.696" fill="none"/>
      </g>
    </g>
  </g>
</svg>
