<svg xmlns="http://www.w3.org/2000/svg" width="19.338" height="27.37" viewBox="0 0 19.338 27.37">
  <g id="Union_1" data-name="Union 1" fill="none">
    <path d="M4.072,17.554A9.661,9.661,0,0,1,.033,10.47L0,10.413H.028Q0,10.044,0,9.669a9.669,9.669,0,1,1,19.338,0q0,.375-.028.744h.028l-.033.057a9.662,9.662,0,0,1-4.039,7.084l-5.6,9.816Z" stroke="none"/>
    <path d="M 9.668737411499023 23.33231353759766 L 13.5282096862793 16.56322860717773 L 13.74682903289795 16.17978858947754 L 14.10652923583984 15.92398834228516 C 15.9583797454834 14.60699844360352 17.12653923034668 12.55942821502686 17.31147956848145 10.30628871917725 L 17.31308555603027 10.28671932220459 L 17.31513977050781 10.25988864898682 C 17.33001899719238 10.06553840637207 17.33755874633789 9.866678237915039 17.33755874633789 9.668828964233398 C 17.33755874633789 5.440218448638916 13.89735984802246 1.999998569488525 9.668779373168945 1.999998569488525 C 5.440199375152588 1.999998569488525 1.999999403953552 5.440218448638916 1.999999403953552 9.668828964233398 C 1.999999403953552 9.867798805236816 2.00749945640564 10.06666851043701 2.022289276123047 10.25988864898682 L 2.024568796157837 10.28967189788818 L 2.025939464569092 10.30637836456299 C 2.210789442062378 12.55947875976562 3.378889322280884 14.60701847076416 5.230739593505859 15.92397880554199 L 5.590429306030273 16.17976951599121 L 5.809049606323242 16.56318855285645 L 9.668737411499023 23.33231353759766 M 9.668779373168945 27.37011909484863 L 4.071639537811279 17.55384826660156 C 1.811719417572021 15.94668865203857 0.2723793685436249 13.39217853546143 0.03263937309384346 10.46990871429443 L -6.268310812629352e-07 10.41251850128174 L 0.02811937406659126 10.41251850128174 C 0.009329373016953468 10.16701889038086 -6.268310812629352e-07 9.91912841796875 -6.268310812629352e-07 9.668828964233398 C -6.268310812629352e-07 4.328788757324219 4.328659534454346 -1.406250021318556e-06 9.668779373168945 -1.406250021318556e-06 C 15.00862979888916 -1.406250021318556e-06 19.33755874633789 4.328788757324219 19.33755874633789 9.668828964233398 C 19.33755874633789 9.91912841796875 19.32810020446777 10.16701889038086 19.3093090057373 10.41251850128174 L 19.33755874633789 10.41251850128174 L 19.30477905273438 10.46990871429443 C 19.06490898132324 13.39217853546143 17.52541923522949 15.94675827026367 15.26563930511475 17.55384826660156 L 9.668779373168945 27.37011909484863 Z" stroke="none" fill="#42bfdd"/>
  </g>
</svg>
