<svg xmlns="http://www.w3.org/2000/svg" width="101.795" height="98.02" viewBox="0 0 101.795 98.02">
  <path id="TX" d="M318.125,330.54l9.4.45,12.874.473-.967,9.712-.123,7.516.028.862,1.8,1.581.823.6.49-.232.155-.753.472.747.874.018v-.6l.691.4.471.169-.149,1.643,1.693.039,1.211.5,1.637.217.986.861.88-.86,1.542.255.92,1.335.445.133-.066.814.917.328.965-.851.883.255.923.015.386,1.008,2.62.875.66-.318.617-1.73h.141l.375.034.509.857,1.627.275,1.382.465,1.418.5.762-.4.3-1.041,1.844.018.749.385,1.159-.872.457.018.352.665h1.679l.629-.84.773.169.806,1,1.458.846,1.184.335.627.331,1.013.827,1.26-.55,1.114.472.233,2.528-.016,4.017.284,3.948.291,1.493,1.108,1.83.372,2.05,1.746,2.293.081,1.3.309.325-.3,3.47L386.7,384.81l.635.891-.261.968-.277,3.066-.623,1.382.122,1.45-2.346.656-4.083,1.874-.4.8-1.071.8-.87.6-.535.335-2.343,2.209-1.138.87-2.209,1.339-2.343,1-2.61,1.406-.736.6-2.41,1.473-1.406.268-1.606,2.276-1.673.134-.4.8.937.8-.6,2.276-.535,1.874-.469,1.606-.335,1.874.335,1,.736,2.878.4,2.544.736,1.138-.4.6-1.272.8-2.343-1.606-2.276-.469-.535.2-1.339-.268-1.74-1.272-2.142-.469-3.146-1.406-.87-1.607-.535-2.677-1.339-.8-.268-.937.268-.268.134-1.406-.535-.268-.268-.4.535-1.807-.669-.937-1.339-.535-1.406-1.807-1.473-2.744-1.74-1.071.067-.8-2.209-5.087-.335-1.74-.736-.8-.067-.6-2.477-2.209-1.071-1.272v-.469l-1.071-.87-2.811-.469-3.079-.268-1.272-.937-1.874.736-1.473.6-.937,1.339-.4,1.54-1.807,2.544-1,1L311,396.7l-.736-.469-.8-.268-1.606-.937v-.268l-.736-.8-2.142-.87-3.079-3.213-.937-1.941v-3.347l-1.339-2.677-.2-1.138-.669-.4-.469-.87-2.075-.87-.535-.669-2.945-3.28-.535-1.339-1.941-.937-.6-1.807-1.071-1.2-.8-.2-.269-1.937,3.313.284,12.022,1.136,12.022.663.925-8.058,1.609-23,.663-7.762.568.012m41,95.092-.234-2.945-1.138-2.979-.234-2.912.636-3.414,1.372-2.845,1.439-2.242,1.305-1.473.268.1-1.975,2.744-1.807,2.711-.837,2.744-.134,2.142.368,2.544,1.071,2.979.2,2.142.067.6Z" transform="translate(-286.919 -330.007)" fill="#ff66b3" stroke="#fff" stroke-width="1"/>
</svg>
