<svg id="electric-tower" xmlns="http://www.w3.org/2000/svg" width="34.974" height="34.974" viewBox="0 0 34.974 34.974">
  <g id="Group_5" data-name="Group 5" transform="translate(0)">
    <path id="Path_3" data-name="Path 3" d="M34.393,33.808h-7.74l-3.627-10.88,8.144-4.344h0l.019-.011a.563.563,0,0,0,.289-.521V16.9h.583a.583.583,0,1,0,0-1.166h-.583v-.583h.583a.583.583,0,1,0,0-1.166h-.583v-.583h.583a.583.583,0,1,0,0-1.166H29.73a.583.583,0,0,0,0,1.166h.583v.583H29.73a.583.583,0,0,0,0,1.166h.583v.583H29.73a.583.583,0,0,0,0,1.166h.583v.583H22.735v-4.9l8.435-4.5h0l.019-.011a.563.563,0,0,0,.289-.521V6.412h.583a.583.583,0,0,0,0-1.166h-.583V4.663h.583a.583.583,0,0,0,0-1.166h-.583V2.915h.583a.583.583,0,0,0,0-1.166H29.73a.583.583,0,1,0,0,1.166h.583V3.5H29.73a.583.583,0,1,0,0,1.166h.583v.583H29.73a.583.583,0,1,0,0,1.166h.583v.583H22.541L20.112,1.166h2.623V2.914a.583.583,0,0,0,1.166,0V.583A.583.583,0,0,0,23.318,0H11.66a.583.583,0,0,0-.583.583V2.914a.583.583,0,0,0,1.166,0V1.166h2.623L12.437,6.995H4.665V6.412h.583a.583.583,0,0,0,0-1.166H4.665V4.663h.583a.583.583,0,0,0,0-1.166H4.665V2.915h.583a.583.583,0,1,0,0-1.166H2.916a.583.583,0,1,0,0,1.166H3.5V3.5H2.916a.583.583,0,0,0,0,1.166H3.5v.583H2.916a.583.583,0,0,0,0,1.166H3.5V7.559a.563.563,0,0,0,.289.521l.019.011h0l8.435,4.5v4.9H4.665V16.9h.583a.583.583,0,0,0,0-1.166H4.665v-.583h.583a.583.583,0,0,0,0-1.166H4.665v-.583h.583a.583.583,0,0,0,0-1.166H2.916a.583.583,0,0,0,0,1.166H3.5v.583H2.916a.583.583,0,0,0,0,1.166H3.5v.583H2.916a.583.583,0,0,0,0,1.166H3.5v1.147a.563.563,0,0,0,.289.521l.019.011h0l8.144,4.344L8.325,33.808H.585a.583.583,0,0,0,0,1.166H34.393a.583.583,0,0,0,0-1.166ZM17.489,8.161h4.08v3.5H13.409v-3.5ZM21.74,23.316h.187l3.045,9.134-6.618-6.042Zm-4.251,2.3-2.522-2.3h5.044Zm1.1-10.463,2.98-1.863v3.726Zm1.531,2.332H14.858l2.631-1.644Zm-2.631-3.019-2.631-1.644H20.12Zm-1.1.687-2.98,1.863V13.293Zm5.18,3.5v3.24l-.282.257h-7.6l-.282-.257v-3.24Zm-8.518,4.663h.187l3.386,3.092L10.007,32.45ZM17.489,27.2l7.241,6.611H10.248Zm11.075-8.544-5.829,3.109V18.653Zm-5.829-7.383V8.161h5.829Zm-6.606-10.1h2.72l2.429,5.829H13.7ZM6.414,8.161h5.829v3.109Zm5.829,10.492v3.109L6.414,18.653Z" transform="translate(-0.002)" fill="#42bfdd"/>
  </g>
</svg>
